<?xml version="1.0" encoding="utf-8"?>
<svg viewBox="39.95 42.367 143.981 189.116" xmlns="http://www.w3.org/2000/svg">
  <defs>
    <style type="text/css">
	.st0{fill:#333333;}
	.st1{fill:#0D3750;}
	.st2{display:none;}
	.st3{display:inline;}
	.st4{display:inline;fill:#333333;}
	.st5{fill:#FFFFFF;}
	.st6{display:inline;fill:#0D3750;}
</style>
  </defs>
  <g>
    <g>
      <path class="st1" d="M92.54,121.26c0,0-0.01,0-0.01,0l-0.35,0c0.09,0.04,0.19,0.09,0.28,0.14 C92.49,121.35,92.52,121.3,92.54,121.26z M92.03,129.01c-0.02,0-0.04,0-0.06,0.01c0,0.01,0,0.01,0,0.03 c-0.02,0.01-0.04,0.05-0.05,0.11c0.05-0.01,0.09-0.01,0.13-0.02C92.04,129.1,92.04,129.06,92.03,129.01z M92.52,129.46 c-0.03,0.02-0.05,0.04-0.09,0.06c0.05-0.02,0.09-0.02,0.13-0.03C92.55,129.48,92.53,129.47,92.52,129.46z M92.43,121.75 c-0.01-0.02-0.01-0.03-0.02-0.04l-0.29,0.04c0.03,0.04,0.16,0.09,0.29,0.1C92.42,121.82,92.43,121.8,92.43,121.75z M92.21,122.09 c0,0.04-0.01,0.07-0.02,0.13c0.03-0.05,0.16-0.03,0.21-0.25C92.34,122.02,92.28,122.06,92.21,122.09z M92.17,124.1l0.12,0.05 l0.01,0.01h0c0.06,0.07,0.03,0.04-0.04-0.05C92.23,124.1,92.2,124.1,92.17,124.1z M93.2,113.47c-0.07,0.09-0.06,0.13-0.03,0.13 c0,0,0.01-0.01,0.01-0.01C93.18,113.56,93.18,113.53,93.2,113.47z M96.25,129.58c-0.01-0.02-0.03,0-0.06,0.04 C96.21,129.61,96.23,129.59,96.25,129.58z M91.95,129.02c-0.03,0.01-0.06,0.01-0.09,0.02C91.87,129.26,91.92,129.09,91.95,129.02 z M92.93,113.58c0-0.01,0-0.02,0-0.04c-0.01,0.01-0.02,0.02-0.05,0.03L92.93,113.58z M100.15,99.07 c-0.11-0.11-0.32-0.29-0.34-0.22c-0.04,0.15,0.06,0.16,0.11,0.26C100,99.1,100.08,99.09,100.15,99.07z M91.84,129.16 c-0.01-0.03-0.01-0.07-0.01-0.11c-0.06,0.01-0.12,0.03-0.18,0.03C91.98,129.11,91.37,129.19,91.84,129.16z M109.63,126.16 l-0.19-0.05c0,0.02,0,0.03-0.01,0.04c0.04,0.03,0.07,0.07,0.11,0.1C109.57,126.23,109.6,126.19,109.63,126.16z M122.35,129.41 c0.07-0.13,0.16-0.25,0.23-0.38c-0.03-0.38,0.16-0.69,0.49-0.92c0.5-0.93,0.97-1.87,1.41-2.84c-0.04-0.47,0.15-0.87,0.15-1.32 c0.08,0.05,0.21,0.11,0.34,0.17c0.01-0.01,0.01-0.03,0.02-0.04c0,0,0,0,0,0c-0.07-0.05-0.13-0.11-0.17-0.16 c-0.08-0.11-0.1-0.21-0.11-0.3c0.14,0.03,0.17,0.02,0.16-0.03l-0.14-0.06c-0.13-0.06-0.26-0.13-0.39-0.2 c-0.02,0.04-0.03,0.08-0.05,0.14c0.01-0.06,0.02-0.11,0.04-0.14c-0.19-0.1-0.37-0.21-0.55-0.34c-0.01-0.07-0.02-0.12-0.03-0.17 c-0.32-0.03-0.62-0.13-0.92-0.23c-0.01,0.01-0.01,0.02-0.02,0.03c-0.48-0.27-0.99-0.29-1.52-0.47c0.07-0.02,0.16-0.19,0.19-0.31 c-0.05,0.02-0.09,0.03-0.13,0.04l-0.1,0.13l0.03-0.12c-0.01,0-0.03,0.01-0.04,0.01c-0.09,0.09-0.21,0.27-0.2,0.43 c-0.83,0-1.49-0.48-2.15-0.96c-0.03,0.07-0.06,0.16-0.09,0.31c-0.14-0.16-0.34-0.47-0.53-0.31c0.06-0.07,0.1-0.2,0.13-0.33 c-0.17-0.11-0.35-0.22-0.53-0.31c-0.13,0.16-0.26,0.28-0.37,0.28c0.08-0.09,0.12-0.23,0.15-0.38c-0.04-0.01-0.07-0.03-0.11-0.04 l-0.47,0.69c-0.08,0,0.15-0.47-0.01-0.35c-0.05,0.16-0.13,0.24-0.2,0.35c0-0.08-0.35,0.04-0.18-0.55 c0.05-0.24,0.16-0.08,0.15-0.31c-0.14-0.04-0.21,0.16-0.35,0.12l0.02-0.08c-0.06-0.12-0.35,0.16-0.36,0.51 c0.05,0.04,0.1-0.36,0.13-0.16c-0.18,0.31-0.37,0.35-0.5,0.31c0.08-0.08,0.13-0.23,0.2-0.39c-0.33,0.38-0.56,0.46-0.82,0.58 c-0.04,0.08-0.07,0.11-0.03,0.01c0.01,0,0.02-0.01,0.03-0.01c0.06-0.11,0.16-0.3,0.19-0.32c-0.14-0.42-0.71,0.36-0.73-0.26 c0.05-0.04-0.12,0.4-0.09,0.32c-0.11-0.08,0.03-0.47-0.1-0.35c0.07-0.24-0.13,0.04-0.24,0.08c-0.07,0.11-0.03,0,0.03-0.07 c-0.23,0.14-0.72,0.27-0.85-0.12c-0.05,0.16-0.36,0.51-0.42,0.47l0.15-0.35c0.01-0.08-0.02-0.1-0.04-0.12 c-0.02,0.01-0.02,0.01-0.02-0.01c-0.03-0.02-0.06-0.03-0.07-0.08c-0.01,0-0.01,0-0.01,0c-0.12,0.07-0.26,0.18-0.26-0.09 c0.01,0.07,0.27-0.47,0.17-0.48c-0.2,0-0.11,0.16-0.3,0.23l-0.14,0.12c-0.13,0.35-0.14-0.1-0.21,0.31 c0.08-0.3-0.32,0.09-0.1-0.49l0.18-0.45c-0.09,0.01-0.29,0.44-0.42,0.62l0.05-0.22c-0.26,0.7-0.16-0.12-0.44,0.39 c-0.02-0.1-0.08-0.15-0.13-0.19c0,0.02-0.01,0.05-0.04,0.07c-0.23-0.09-0.32-0.1-0.31-0.02l0.35,0.28 c-0.15,0.14-0.56-0.09-0.96-0.22c0.04,0.11-0.02,0.22,0.26,0.36l-0.53-0.06c0.38,0.04,0.21,0.16,0.29,0.23l-0.08-0.08 c-0.17-0.04-0.11,0.1-0.08,0.17c0.25,0.07,0.38,0,0.48-0.03c0.16,0.11,0.09,0.16,0.28,0.3c-0.38-0.15-0.33,0.05-0.39,0.11 c-0.11,0.05,0.31,0.21,0.29,0.23c-0.2-0.07-0.08,0.12-0.34-0.04c-0.06-0.05,0.22,0,0.06-0.1c-0.17,0-0.52-0.13-0.3,0.07 c0.16,0.15,0.77,0.24,0.47,0.32c-0.08-0.08-0.23-0.14-0.36-0.22l-0.25,0.08l0.35,0.13c-0.1-0.01-0.12-0.04-0.17-0.04 c0.36,0.17,0.04,0.27,0.44,0.45c0.01,0.09-0.3,0.07-0.36,0.13l-0.03-0.02c-0.24,0.02-0.14,0.18,0.07,0.34l-0.08-0.03 c-0.04,0.04-0.03,0.17,0.16,0.3c-0.31,0.03-1.35-0.42-0.95-0.13c-0.03,0.13,0.58,0.42,0.82,0.45c-0.32,0.14,0.17,0.59-0.45,0.61 c0.13,0.08,0.23,0.09,0.29,0.19c-0.25,0.28,0.18,0.83-0.6,0.85c-0.12-0.15-0.35-0.13-0.55-0.2c0.29,0.19-0.36-0.02,0.17,0.2 c0.32,0.1,0.47,0.16,0.63,0.12c0.1,0.25,0,0.55-0.33,0.55c0.17,0,0.25,0.07,0.33,0.15c-0.5-0.19-0.63-0.07-0.49,0.1l0.3,0.12 l-0.34-0.04c0.04,0.04,0.19,0.1,0.3,0.16c0.03-0.03,0.05-0.06,0.07-0.08l-0.04,0.1c0.09,0.05,0.12,0.09-0.03,0.09l-0.02,0.05 c0.08-0.08,0.16,0.02,0.29-0.23c-0.09,0.12-0.14,0.29-0.12,0.37l0.19-0.35c0.25-0.11-0.22,0.66-0.01,0.62l-0.24,0.23 c0.05-0.05-0.03,0.32,0.1,0.24c0.17-0.32,0.39-0.69,0.52-0.94c0.15-0.11-0.11,0.39,0.12,0.09l-0.29,0.35 c-0.06,0.1-0.14,0.58-0.01,0.63c0.13-0.08,0.45-0.51,0.4-0.74c0.07,0.02,0.07,0.26-0.08,0.48c0.19-0.06,0.13-0.36,0.34-0.52 c-0.04,0.24-0.01,0.62-0.05,0.98l-0.36,0.5l0.08,0.04c-0.29,0.4-0.09,0.36-0.34,0.8c0.03,0.1,0.16-0.03,0.27-0.13 c0.15-0.82,0.62-0.94,0.86-1.65c0.32-0.09-0.56,1.72,0.14,0.75c0.03-0.15,0.24-0.47,0.21-0.53c-0.02,0.02-0.05,0.02-0.07,0 c0.05-0.03,0.06-0.02,0.07,0c0.13-0.09,0.33-0.58,0.38-0.29c-0.25,0.23-0.16,0.74-0.52,1.07c0.11-0.22-0.03-0.21-0.08-0.16 c-0.05,0.29-0.31,0.68-0.16,0.74c0.12-0.03,0.25,0.01,0.38-0.35c0.17-0.39-0.16-0.02,0.07-0.38c0.24-0.06,0.01,0.54,0.39-0.12 c-0.14,0.01,0.01-0.4,0.13-0.67l0.21-0.11l-0.14,0.25c0.13,0.28,0.27-0.44,0.45-0.28l-0.13,0.55c-0.24,0.42-0.22-0.32-0.49,0.41 c0.12,0.08,0.33-0.26,0.37-0.02l-0.16,0.1c0.04,0.04-0.33,1.01,0.1,0.53c0.19-0.17,0.14-0.24,0.26-0.51 c0.25,0.01,0.44-0.24,0.6-0.22c-0.26,0.51,0.22,0.15-0.17,0.62c0.07-0.33-0.26-0.43-0.56,0.03c-0.2,0.65-0.13-0.16-0.45,0.45 c0.16,0.09-0.12,0.69-0.27,1.1c0.03,0.05,0.16-0.1,0.21-0.15c0.19-0.37,0.12-0.39,0.29-0.77c0.14,0.18,0.42,0.05,0.69-0.27 c-0.02,0.21-0.21,0.57-0.3,0.58c0.28-0.02,0.5,0.14,0.66,0.34c0.13-0.57,0.26-0.19,0.39-0.42c-0.08,0.2-0.16,0.43-0.27,0.63 c0.27-0.19-0.17,0.33-0.02,0.41c0.27-0.19,0.54-0.3,0.75-0.32c-0.02,0.55,0.5,0.27,0.69,0.35c-0.02,0.29-0.35,0.78-0.3,0.93 c0.12,0.05,0.2-0.62,0.25-0.28l-0.07,0.1c0.11-0.09,0.14,0.53,0.57-0.21l-0.34,0.54c0.01,0.07,0.1-0.05,0.16-0.09 c-0.09,0.18-0.14,0.37-0.25,0.46c0.11,0.04,0.21,0.08,0.32,0.11c0.02-0.01,0.04-0.01,0.06,0l0.1-0.38 c0.34-0.16,0.3,0.24,0.55,0.23l-0.18,0.32c0,0,0,0,0,0l0.21-0.13c-0.04,0.06-0.07,0.12-0.09,0.17c0.98,0.31,1.95,0.62,2.88,1.04 l0.13,0.09l0.07,0.04l0.02,0.01l0,0l0,0c0.04,0.28,0.09,0.53,0.13,0.79c1.09-1.41,2.09-2.9,3.02-4.46c0-0.08-0.01-0.16-0.05-0.25 C122.18,129.32,122.26,129.36,122.35,129.41z M110.44,126.76c-0.02-0.03-0.01-0.07-0.07-0.02c0-0.12,0.11-0.27,0.16-0.27 L110.44,126.76z M111.34,126.73c-0.05,0-0.21,0.15-0.14-0.11C111.16,126.81,111.5,126.41,111.34,126.73z M112.68,128.06 c-0.05-0.02-0.04-0.12-0.02-0.24C112.68,127.86,112.83,127.77,112.68,128.06z M112.96,127.57c0.02-0.22,0.08-0.31,0.17-0.27 C113.08,127.42,113.02,127.47,112.96,127.57z M113.29,128.8c0.11-0.22,0.37-0.32,0.48-0.31L113.29,128.8z M114,129.3 c-0.04,0.07,0.01-0.12,0.01-0.17c0.05,0,0.18-0.19,0.15-0.05C114.12,129.08,114.07,129.2,114,129.3z M114.08,128.84 c-0.07,0.08-0.14,0.19-0.19,0.33c0.01-0.03,0.02-0.04,0.03-0.08c-0.05-0.2,0.05-0.66,0.24-0.91c0.06,0.07-0.13,0.26-0.16,0.41 C114.17,128.39,114.05,128.76,114.08,128.84c0.04-0.05,0.09-0.1,0.15-0.12C114.12,128.86,114.09,128.88,114.08,128.84z M115.55,121.83c-0.08,0,0.13-0.28,0.02-0.28C115.7,121.44,115.55,121.79,115.55,121.83z M109.18,126.57L109.18,126.57 C109.17,126.57,109.17,126.58,109.18,126.57C109.18,126.58,109.18,126.58,109.18,126.57z M109.37,126.09 c0.02,0.02,0.04,0.04,0.06,0.06c0-0.01,0.01-0.02,0.01-0.04L109.37,126.09z M115.67,132c0.04,0.01,0.08,0.03,0.13,0.04 C115.78,131.98,115.73,131.97,115.67,132z M98.5,125.75c-0.01-0.02-0.01-0.02-0.02-0.04c0,0.01-0.01,0.02-0.01,0.04 C98.48,125.75,98.49,125.75,98.5,125.75z M113.1,120.45c0-0.01,0-0.01,0.01-0.02c-0.03-0.01-0.07,0.01-0.12,0.04 c0,0,0,0.01,0,0.01C113.01,120.48,113.05,120.47,113.1,120.45z M109.28,126.68c0.04,0.03,0.09,0.05,0.14,0.07 c0.03-0.03,0.05-0.08,0.08-0.14l-0.2-0.02C109.3,126.61,109.29,126.64,109.28,126.68z M93.25,113.56 c-0.02,0.01-0.04,0.02-0.06,0.03c0,0,0,0.01,0,0.01c0.03,0,0.07-0.01,0.11-0.03L93.25,113.56z M99.68,125.95 c0-0.21-0.12-0.21-0.23-0.02c0.03,0,0.07,0.01,0.1,0.01c0-0.01,0.01-0.01,0.01-0.01c0,0.01,0,0.01,0,0.01 C99.59,125.94,99.64,125.95,99.68,125.95z M102.62,126.18l0.89,0.29l0.23,0.06l0.11,0.03l0.06,0.01l0.01,0l0,0h0 c0.02,0.03,0.03,0.07,0.05,0.1l1.55-4.46c-0.02-0.02-0.04-0.04-0.07-0.06c0.03-0.09,0.1-0.16,0.17-0.23l0.01-0.02l0.06-0.16 c-0.02-0.07-0.05-0.15-0.11-0.23c-0.01-0.03,0.07-0.01,0.18,0.03l0.04-0.12c-0.01-0.01-0.01-0.02-0.02-0.03 c0.01,0,0.02,0,0.02,0.01l0.03-0.07l0.01-0.04c-0.01-0.01-0.02-0.01-0.03-0.03c-0.07-0.17-0.03-0.3,0.05-0.42 c0.02-0.26,0.15-0.49,0.38-0.7l0.72-2.09l0.07-0.2c0,0,0,0,0-0.01l0,0l0.04-0.12c0-0.02,0.01-0.04,0.02-0.06l0.17-0.5 c-0.04-0.03-0.06-0.05-0.12-0.08c0.05,0,0.08-0.02,0.1-0.03c-0.01-0.1-0.01-0.2,0-0.3c-0.03,0.32-0.52,0-0.77,0.1 c0.05-0.09,0.1-0.22,0.15-0.35l-0.05-0.02c-0.15,0.23-0.31,0.28-0.44,0.31c0.09-0.48-0.39,0.33-0.47,0.02l0.05-0.1 c-0.29,0.44-0.09-0.34-0.39,0.2l0.05-0.39c-0.28,0.63-0.06-0.4-0.28-0.1l-0.04,0.13c-0.15,0.12-0.09-0.22-0.22-0.14l0.02-0.08 c-0.27,0.1-0.27-0.31-0.44,0.2c0.06-0.42,0.26-0.14,0.35-0.7l-0.08-0.03c-0.83,0.23-1.49-0.1-2.17-0.33 c-0.01-0.2-0.03-0.29,0-0.43l-0.03-0.01l-0.08-0.03c-0.1,0.02-0.22,0.03-0.33,0.2c0.03,0,0.04-0.25,0.02-0.3l-0.08-0.03 c-0.11,0.1-0.27,0.46-0.31,0.25c0.07-0.08,0.12-0.19,0.17-0.3l-0.07-0.03c-0.18,0.16-0.3,0.11-0.45,0.17 c0.05-0.08,0.1-0.12,0.15-0.28c-0.31,0.39-0.25-0.19-0.48,0.04l0.1-0.18l-0.11-0.04l0,0c-0.08,0.17-0.16,0.41-0.22,0.26 l0.14-0.29l-0.01,0c-0.35,0.43-0.57,0.17-0.8,0.29c0.02-0.04,0.05-0.12,0.05-0.12c-0.21,0-0.36-0.23-0.65-0.07 c-0.02-0.11,0.1-0.38,0.12-0.54l-0.08-0.03l-0.03-0.01c-0.19,0.44-0.4,0.08-0.5,0.75c-0.14-0.16-0.34-0.47-0.52-0.31 c0.13-0.17,0.16-0.57,0.27-0.69l-0.48-0.17l-0.01,0c-0.19,0.26-0.39,0.51-0.54,0.51c0.14-0.15,0.16-0.45,0.21-0.63l-0.02-0.01 l-0.62,0.91c-0.08,0,0.15-0.47-0.01-0.35c-0.05,0.16-0.13,0.24-0.2,0.35c0-0.08-0.35,0.04-0.18-0.55 c0.05-0.24,0.16-0.08,0.15-0.31c-0.13-0.04-0.21,0.16-0.34,0.12l0.02-0.08c-0.06-0.12-0.34,0.16-0.36,0.51 c0.05,0.04,0.1-0.36,0.13-0.16c-0.18,0.31-0.36,0.35-0.5,0.32c0.08-0.08,0.13-0.23,0.2-0.39c-0.32,0.38-0.56,0.47-0.81,0.58 c-0.04,0.08-0.06,0.11-0.03,0.01c0.01,0,0.02-0.01,0.03-0.01c0.06-0.11,0.16-0.3,0.19-0.32c-0.14-0.42-0.7,0.36-0.72-0.26 c0.05-0.04-0.12,0.4-0.09,0.32c-0.11-0.08,0.03-0.47-0.1-0.35c0.07-0.24-0.13,0.04-0.23,0.08c-0.07,0.11-0.03,0,0.03-0.07 c-0.23,0.14-0.71,0.27-0.85-0.12c-0.03,0.1-0.18,0.29-0.29,0.39c0.05,0.02,0.1,0.03,0.18,0.05c-0.57,0.16,0.1,0.76-0.98,0.69 c0.08,0.06-0.04,0.14,0.26,0.19c0.34,0.01-0.21-0.15,0.02-0.12c0.01,0.04,0.16,0.09,0.24,0.11c-0.16,0.06-0.21,0.12-0.67-0.08 c-0.4,0.12,0.95,0.44,0.67,0.64c-0.24-0.07-0.33-0.07-0.31,0.02l0.38,0.23c-0.13,0.14-0.57-0.03-0.98-0.11 c0.05,0.1,0.01,0.21,0.31,0.31l-0.53,0c0.39,0,0.23,0.12,0.32,0.19l-0.09-0.06c-0.18-0.02-0.09,0.11-0.05,0.17 c0.26,0.04,0.38-0.05,0.46-0.09c0.17,0.08,0.12,0.14,0.32,0.25c-0.4-0.1-0.31,0.09-0.37,0.15c-0.1,0.06,0.34,0.16,0.32,0.18 c-0.21-0.04-0.06,0.12-0.34,0.01c-0.06-0.04,0.21-0.02,0.04-0.11c-0.17,0.02-0.53-0.05-0.29,0.11c0.18,0.12,0.8,0.13,0.51,0.24 c-0.09-0.06-0.25-0.1-0.39-0.16l-0.24,0.11l0.37,0.07c-0.1,0-0.13-0.02-0.18-0.02c0.38,0.11,0.07,0.25,0.5,0.36 c0.02,0.08-0.29,0.11-0.34,0.18l-0.03-0.02c-0.23,0.05-0.11,0.19,0.12,0.3l-0.08-0.02c-0.04,0.04,0,0.16,0.2,0.26 c-0.29,0.08-1.4-0.18-0.95,0.03c0,0.13,0.65,0.3,0.89,0.28c-0.28,0.18,0.3,0.52-0.3,0.64c0.15,0.05,0.24,0.04,0.32,0.12 c-0.19,0.3,0.36,0.73-0.4,0.9c-0.14-0.11-0.37-0.05-0.58-0.07c0.32,0.11-0.36,0.06,0.21,0.15c0.34,0.03,0.5,0.05,0.64-0.02 c0.16,0.21,0.12,0.5-0.2,0.58c0.16-0.04,0.26,0.01,0.35,0.06c-0.53-0.06-0.63,0.07-0.46,0.2l0.32,0.04l-0.34,0.04 c0.1,0.05,0.64,0.1,0.38,0.18l-0.02,0.19c0.01,0.01,0.02,0.01,0.03,0.02c0.06-0.04,0.13-0.03,0.19-0.25 c-0.06,0.14-0.07,0.32-0.04,0.38l0.11-0.38c0.21-0.16-0.07,0.69,0.13,0.61l-0.18,0.28c0.04-0.06,0.04,0.31,0.14,0.21 c0.09-0.35,0.22-0.76,0.3-1.03c0.13-0.14-0.02,0.41,0.14,0.06l-0.2,0.4c-0.04,0.11-0.01,0.6,0.12,0.61 c0.11-0.11,0.33-0.59,0.22-0.81c0.07,0.01,0.12,0.24,0.03,0.49c0.17-0.1,0.05-0.38,0.21-0.58c0.01,0.24,0.12,0.61,0.16,0.97 l-0.24,0.57l0.09,0.02c-0.2,0.45-0.01,0.37-0.16,0.86c0.05,0.09,0.15-0.07,0.23-0.19c-0.04-0.83,0.4-1.06,0.48-1.79 c0.29-0.15-0.17,1.8,0.3,0.7c-0.01-0.16,0.13-0.52,0.09-0.57c0.11-0.13,0.19-0.63,0.3-0.35c-0.19,0.28,0,0.76-0.27,1.16 c0.06-0.24-0.07-0.2-0.12-0.14c0.01,0.29-0.15,0.73,0.01,0.76c0.11-0.05,0.24-0.04,0.29-0.43c0.08-0.42-0.15,0.02-0.01-0.39 c0.22-0.11,0.13,0.53,0.35-0.2c-0.13,0.04-0.08-0.4-0.02-0.68l0.18-0.15l-0.08,0.27c0.19,0.24,0.17-0.49,0.37-0.38l-0.01,0.56 c-0.15,0.46-0.28-0.27-0.39,0.51c0.14,0.06,0.26-0.32,0.35-0.1l-0.13,0.13c0.05,0.04-0.11,1.06,0.21,0.5 c0.15-0.21,0.08-0.27,0.14-0.55c0.25-0.05,0.37-0.33,0.53-0.34c-0.15,0.55,0.25,0.1-0.03,0.64c-0.01-0.34-0.34-0.37-0.53,0.15 c-0.05,0.68-0.16-0.13-0.34,0.54c0.18,0.05,0.04,0.7-0.02,1.13c0.04,0.04,0.13-0.13,0.17-0.19c0.1-0.4,0.04-0.4,0.12-0.82 c0.18,0.15,0.42-0.05,0.61-0.42c0.03,0.21-0.08,0.61-0.17,0.63c0.26-0.08,0.51,0.02,0.71,0.19c0-0.59,0.21-0.25,0.28-0.5 c-0.03,0.22-0.06,0.45-0.13,0.67c0.22-0.26-0.09,0.36,0.07,0.4c0.22-0.24,0.46-0.41,0.65-0.48c0.1,0.54,0.54,0.16,0.74,0.19 c0.04,0.28-0.17,0.84-0.09,0.97c0.13,0.02,0.06-0.65,0.18-0.33l-0.05,0.11c0.09-0.12,0.25,0.48,0.51-0.33l-0.21,0.61 c0.02,0.07,0.09-0.07,0.13-0.13c-0.05,0.2-0.06,0.4-0.15,0.52c0,0.04,0.01,0.06,0.01,0.09c0.01,0,0.02,0,0.03,0.01 c0.05,0.01,0.09,0.02,0.14,0.04c0.01,0,0.01,0,0.02,0c0.07-0.06,0.14-0.12,0.19-0.12l0.01-0.39c0.29-0.23,0.34,0.17,0.58,0.1 l-0.1,0.36l0.18-0.18c-0.04,0.12-0.06,0.22-0.06,0.3C100.78,126.01,101.72,126,102.62,126.18z M93.35,121.86 c-0.02-0.02-0.03-0.07-0.07-0.01c-0.03-0.12,0.05-0.29,0.09-0.3L93.35,121.86z M94.21,121.64c-0.04,0.01-0.17,0.2-0.16-0.08 C94.06,121.75,94.31,121.29,94.21,121.64z M95.74,114.67c0.13-0.12-0.02,0.24-0.02,0.27C95.64,114.95,95.85,114.67,95.74,114.67z M95.8,122.64c-0.05,0-0.06-0.11-0.07-0.23C95.76,122.45,95.88,122.32,95.8,122.64z M95.96,122.1c-0.03-0.21,0.01-0.32,0.1-0.3 L95.96,122.1z M96.55,123.23c0.06-0.24,0.29-0.39,0.4-0.4L96.55,123.23z M97.2,123.47c0-0.03,0.01-0.05,0.01-0.09 c-0.09-0.17-0.09-0.65,0.04-0.93c0.07,0.06-0.07,0.29-0.06,0.43c0.12-0.24,0.09,0.14,0.13,0.21c0.03-0.06,0.06-0.12,0.12-0.16 c-0.07,0.16-0.1,0.19-0.12,0.16C97.27,123.19,97.23,123.32,97.2,123.47z M97.35,123.55c-0.02,0.08-0.02-0.12-0.02-0.17 c0.04-0.01,0.13-0.22,0.13-0.08C97.41,123.31,97.39,123.44,97.35,123.55z M99.31,114.62l-0.03,0l0.17-0.47L99.31,114.62z M108.77,128.56c-0.11-0.03-0.21-0.06-0.31-0.14c-0.3,0.07,0.33,0.35,0.4,0.49c0.05,0.02,0.08,0.03,0.09,0.03 c-0.01-0.02-0.02-0.03-0.02-0.05c-0.01-0.01-0.01-0.01-0.01-0.02C108.88,128.78,108.83,128.68,108.77,128.56z M102.74,130.2 L102.74,130.2c-0.02-0.06-0.04-0.1-0.06-0.14c-0.02-0.01-0.03-0.03-0.05-0.05C102.66,130.05,102.69,130.11,102.74,130.2 L102.74,130.2z M110.25,108.56c-0.02-0.07-0.05-0.14-0.11-0.23c-0.01-0.03,0.07-0.01,0.18,0.03l0.14-0.41 c-0.11-0.37,0.04-0.69,0.34-0.97l1.02-2.95c-0.02-0.14-0.03-0.27-0.02-0.4c-0.08,0.33-0.52-0.02-0.78,0.06 c0.05-0.08,0.1-0.2,0.15-0.33c0,0,0,0,0,0c-0.02-0.01-0.03-0.01-0.05-0.02c-0.15,0.21-0.3,0.25-0.44,0.27 c0.11-0.48-0.4,0.32-0.47,0l0.05-0.09c-0.31,0.43-0.07-0.35-0.4,0.18l0.06-0.39c-0.31,0.62-0.05-0.41-0.27-0.12l-0.05,0.13 c-0.16,0.12-0.08-0.23-0.21-0.15l0.02-0.08c-0.27,0.08-0.25-0.32-0.45,0.18c0.08-0.4,0.25-0.15,0.37-0.61 c-0.04-0.01-0.07-0.03-0.11-0.04c-0.03-0.01-0.05-0.02-0.08-0.03c-0.78,0.12-1.39-0.22-2.02-0.47c0.01-0.17,0.01-0.27,0.03-0.38 c-0.04-0.02-0.09-0.04-0.13-0.06c-0.02-0.01-0.03-0.01-0.05-0.02c-0.08,0.01-0.18,0.05-0.27,0.16c0.02,0,0.05-0.17,0.05-0.26 c-0.04-0.02-0.07-0.03-0.11-0.05c-0.11,0.11-0.28,0.4-0.31,0.21c0.07-0.07,0.13-0.16,0.18-0.26c-0.03-0.01-0.05-0.02-0.08-0.04 c-0.18,0.13-0.29,0.07-0.45,0.12c0.06-0.07,0.11-0.11,0.17-0.25c0,0,0,0,0,0c0,0,0,0,0,0c-0.33,0.33-0.22-0.21-0.47,0l0.11-0.16 c-0.03-0.01-0.06-0.03-0.09-0.04c-0.01,0-0.01-0.01-0.02-0.01c-0.09,0.17-0.2,0.38-0.25,0.23l0.16-0.27c0,0,0,0-0.01,0 c0,0,0,0,0,0c-0.39,0.4-0.58,0.11-0.82,0.2c0.03-0.03,0.06-0.11,0.06-0.11c-0.21-0.03-0.32-0.29-0.62-0.17 c-0.01-0.1,0.13-0.34,0.17-0.5c-0.01-0.01-0.03-0.01-0.04-0.02c-0.03-0.01-0.05-0.03-0.08-0.04c-0.23,0.38-0.39,0.01-0.57,0.65 c-0.12-0.18-0.27-0.52-0.47-0.39c0.13-0.13,0.22-0.47,0.32-0.62c-0.05-0.02-0.1-0.05-0.15-0.07c-0.1-0.05-0.21-0.1-0.31-0.15 c-0.21,0.22-0.42,0.41-0.56,0.39c0.14-0.11,0.21-0.36,0.28-0.53c-0.01-0.01-0.03-0.01-0.04-0.02l-0.69,0.76 c-0.08-0.01,0.21-0.44,0.04-0.35c-0.07,0.15-0.16,0.22-0.25,0.32c0.01-0.08-0.35-0.01-0.1-0.57c0.08-0.23,0.17-0.06,0.2-0.29 c-0.13-0.06-0.23,0.12-0.36,0.07l0.04-0.07c-0.04-0.12-0.36,0.1-0.44,0.45c0.05,0.05,0.15-0.34,0.15-0.13 c-0.23,0.28-0.42,0.29-0.55,0.23c0.09-0.06,0.16-0.21,0.26-0.35c-0.38,0.32-0.63,0.37-0.9,0.44c-0.05,0.07-0.08,0.1-0.03,0.01 c0.01,0,0.02-0.01,0.03-0.01c0.08-0.1,0.21-0.27,0.24-0.29c-0.03-0.19-0.18-0.17-0.33-0.13c-0.02,0.02-0.04,0.03-0.09,0.02 c-0.14,0.03-0.26,0.03-0.26-0.17l-0.02-0.01c-0.01,0.03-0.03,0.06-0.05,0.09c0.08,0.08,0.15,0.16,0.2,0.22l-0.19-0.11 c0.6,0.45-0.16,0.11,0.26,0.52c-0.3-0.02-0.25,0.31-0.68,0.11c0.11,0.23,0.27,0.47,0.06,0.49c-0.04-0.06-0.04-0.1-0.16-0.2 c-0.23-0.05-0.08,0.08-0.03,0.21c-0.08-0.08-0.46-0.1-0.74-0.17c0.11,0.22,0.47,0.41,0.67,0.56c-0.68-0.32,0.21,0.55-0.42,0.3 c-0.06-0.09-0.21-0.35-0.42-0.37c-0.67-0.31,0.34,0.49-0.05,0.45l0.54,0.29c-0.36-0.14,0.16,0.41-0.35,0.06 c0.15,0.17-0.28,0.07,0.23,0.37c-0.58-0.02-0.11,0.76-1.12,0.36c0.06,0.09-0.08,0.13,0.19,0.26c0.32,0.11-0.15-0.21,0.06-0.11 c0,0.04,0.13,0.13,0.2,0.18c-0.16,0.01-0.24,0.05-0.62-0.28c-0.43-0.01,0.76,0.7,0.43,0.8c-0.21-0.13-0.3-0.16-0.3-0.08 l0.29,0.33c-0.17,0.09-0.54-0.2-0.9-0.4c0.01,0.11-0.05,0.2,0.2,0.39l-0.51-0.16c0.37,0.11,0.19,0.19,0.25,0.28l-0.07-0.09 c-0.16-0.07-0.12,0.07-0.09,0.15c0.23,0.11,0.37,0.07,0.46,0.06c0.14,0.13,0.07,0.17,0.23,0.33c-0.35-0.22-0.32-0.01-0.39,0.03 c-0.12,0.03,0.28,0.26,0.26,0.27c-0.19-0.1-0.09,0.1-0.33-0.1c-0.05-0.06,0.21,0.04,0.07-0.09c-0.16-0.03-0.49-0.21-0.3,0.02 c0.14,0.17,0.72,0.36,0.42,0.38c-0.07-0.08-0.21-0.17-0.33-0.27l-0.26,0.03l0.33,0.18c-0.09-0.03-0.12-0.05-0.16-0.07 c0.33,0.22,0,0.26,0.38,0.49c0,0.08-0.3,0.02-0.37,0.06l-0.02-0.03c-0.24-0.02-0.16,0.15,0.03,0.33l-0.07-0.04 c-0.05,0.03-0.05,0.16,0.12,0.31c-0.31-0.02-1.28-0.59-0.92-0.26c-0.05,0.12,0.52,0.47,0.76,0.54c-0.33,0.09,0.1,0.57-0.51,0.5 c0.12,0.09,0.22,0.12,0.27,0.21c-0.23,0.2,0.04,0.66-0.39,0.73c-0.02,0.03-0.03,0.07-0.05,0.14c0,0,0,0,0,0.01 c0.01,0,0.03,0,0.04,0c0.02,0.05,0.02,0.09,0.02,0.14c0.09-0.03,0.23-0.23,0.26-0.12c-0.04-0.21,0.21-0.64,0.3-0.71 c0.03,0.26-0.22,0.41-0.08,0.51c0.12-0.26,0.33-0.41,0.27-0.63c0.27-0.58,0.1,0.22,0.35-0.21c-0.1,0.44-0.5,0.92-0.4,1.2 c0.11-0.42,0.4-0.48,0.52-1.12c0.03,0.14-0.08,0.46-0.21,0.7c0.01,0.28,0.49-0.66,0.24,0.16l0.18-0.41 c-0.02,0.15-0.01,0.26-0.04,0.51c0.08,0.04,0.47-0.47,0.24,0.16c0.05-0.06,0.23,0.04,0.31-0.42c-0.03-0.31-0.25,0.27-0.11-0.34 c-0.08,0.51,0.19,0,0.32-0.14l-0.07,0.25c0.07-0.08,0.15,0.01,0.27-0.25c-0.08,0.13-0.12,0.3-0.11,0.37l0.17-0.36 c0.23-0.13-0.19,0.67,0.01,0.61l-0.22,0.24c0.05-0.05-0.02,0.32,0.1,0.23c0.15-0.33,0.35-0.71,0.46-0.97 c0.14-0.12-0.09,0.4,0.12,0.08l-0.26,0.37c-0.06,0.11-0.11,0.59,0.01,0.62c0.12-0.09,0.41-0.54,0.35-0.76 c0.06,0.02,0.08,0.25-0.06,0.48c0.18-0.07,0.11-0.37,0.3-0.54c-0.03,0.24,0.01,0.62-0.01,0.98l-0.32,0.52l0.08,0.03 c-0.27,0.42-0.07,0.37-0.29,0.82c0.03,0.09,0.16-0.04,0.25-0.15c0.1-0.82,0.55-0.98,0.74-1.7c0.29-0.11-0.45,1.75,0.17,0.74 c0.02-0.15,0.2-0.49,0.18-0.55c0.12-0.11,0.28-0.59,0.34-0.31c-0.22,0.24-0.11,0.75-0.44,1.11c0.09-0.23-0.04-0.21-0.09-0.16 c-0.04,0.29-0.26,0.7-0.11,0.75c0.11-0.04,0.24-0.01,0.35-0.38c0.14-0.4-0.15,0,0.05-0.39c0.22-0.08,0.04,0.54,0.36-0.14 c-0.13,0.02-0.02-0.4,0.08-0.68l0.19-0.12l-0.12,0.26c0.14,0.26,0.23-0.46,0.41-0.32l-0.09,0.56c-0.2,0.44-0.22-0.3-0.44,0.45 c0.12,0.08,0.29-0.28,0.35-0.05l-0.14,0.11c0.04,0.04-0.25,1.03,0.13,0.53c0.17-0.19,0.12-0.25,0.21-0.53 c0.24-0.01,0.4-0.27,0.55-0.27c-0.21,0.53,0.22,0.14-0.12,0.63c0.04-0.34-0.27-0.41-0.53,0.07c-0.15,0.66-0.13-0.15-0.4,0.48 c0.14,0.06-0.01,0.54-0.13,0.95c0.04,0.01,0.08,0.02,0.12,0.03c0.01-0.01,0.01-0.02,0.02-0.02c0.15-0.38,0.09-0.4,0.23-0.8 c0.15,0.17,0.41,0.02,0.64-0.32c0,0.21-0.16,0.59-0.24,0.6c0.26-0.04,0.48,0.1,0.66,0.29c0.07-0.59,0.23-0.21,0.33-0.46 c-0.06,0.21-0.12,0.44-0.21,0.65c0.24-0.23-0.13,0.35,0.02,0.4c0.24-0.22,0.5-0.38,0.7-0.43c0.04,0.54,0.52,0.19,0.71,0.23 c0.01,0.19-0.1,0.48-0.16,0.7c0.03,0.01,0.06,0.02,0.09,0.03c0.03-0.14,0.05-0.27,0.1-0.09l-0.06,0.11 c0.03-0.03,0.06,0,0.09,0.03c0.06,0.02,0.13,0.04,0.19,0.06c0.07-0.04,0.15-0.14,0.25-0.39l-0.18,0.41 c0.14,0.05,0.28,0.11,0.42,0.17c0.1-0.02,0.16,0.04,0.22,0.1c0.07,0.03,0.13,0.06,0.19,0.1c0.01,0,0.02,0,0.03,0l-0.01,0.01 c0.22,0.11,0.44,0.24,0.65,0.39c0.04,0.28,0.07,0.45,0.11,0.55l0.07,0.03l0.22,0.08c0.05-0.01,0.1-0.03,0.17-0.05 c-0.02,0.04-0.04,0.06-0.05,0.09l0.01,0l0.01,0c0.16-0.28,0.23,0.11,0.42-0.32c0.48,0.27,1,0.29,1.52,0.47 c-0.1,0.03-0.29,0.44-0.18,0.44l0.22-0.29l-0.03,0.15c0.09-0.05,0.26-0.28,0.25-0.48l0.53,0.07l0.13,0.04l0.06,0.02l0.03,0.01 l0.02,0l0.01,0l0,0h0c-0.79-1.62-0.55-1.14,0,0l1.3-3.74L110.25,108.56z M98.48,101.74l0.14,0.01l0.06,0.13L98.48,101.74z M98.66,107.76c-0.02-0.02-0.01-0.07-0.06-0.02c-0.01-0.12,0.1-0.27,0.14-0.28L98.66,107.76z M99.51,107.67 c-0.04,0.01-0.19,0.17-0.14-0.1C99.35,107.76,99.66,107.34,99.51,107.67z M100.45,100.71c-0.08-0.01,0.17-0.25,0.06-0.27 C100.66,100.35,100.46,100.67,100.45,100.71z M100.85,108.88c-0.05-0.01-0.05-0.12-0.03-0.23 C100.84,108.69,100.97,108.58,100.85,108.88z M101.09,108.38c0-0.22,0.06-0.32,0.14-0.28L101.09,108.38z M101.48,109.58 c0.09-0.23,0.32-0.35,0.43-0.35L101.48,109.58z M102.2,110c-0.03,0.08-0.01-0.12,0-0.17c0.04-0.01,0.16-0.21,0.14-0.07 C102.3,109.78,102.26,109.9,102.2,110z M102.23,109.55c-0.06,0.1-0.12,0.22-0.16,0.37c0.01-0.03,0.02-0.05,0.02-0.09 c-0.06-0.18-0.01-0.67,0.16-0.93c0.06,0.06-0.1,0.28-0.12,0.42C102.28,109.1,102.2,109.48,102.23,109.55 c0.04-0.06,0.08-0.11,0.13-0.14C102.28,109.57,102.25,109.58,102.23,109.55z M104.04,100.92l0.23-0.45l-0.2,0.45L104.04,100.92z M93.14,113.62l0.06,0.01c-0.01-0.01-0.01-0.02-0.01-0.03c-0.01,0-0.01,0-0.01,0C93.16,113.61,93.15,113.62,93.14,113.62z M106.57,131.65c-0.13,0.03-0.09,0.1,0,0.18c0.05-0.03,0.12-0.06,0.18-0.09C106.7,131.72,106.64,131.7,106.57,131.65z M106.58,128.13c0.01,0.01,0,0.01,0.01,0.03c0.01-0.01,0.02-0.03,0.03-0.04C106.61,128.11,106.6,128.12,106.58,128.13z M95.5,108.27C95.5,108.27,95.5,108.27,95.5,108.27C95.5,108.27,95.5,108.27,95.5,108.27C95.5,108.27,95.5,108.27,95.5,108.27z M106.95,131.65c-0.01-0.01,0-0.01,0.02-0.01c0.08-0.04,0.15-0.07,0.24-0.11c-0.11,0.04-0.25,0.05-0.49,0.02 c0.06,0.06,0.01,0.12,0.08,0.17C106.86,131.7,106.91,131.67,106.95,131.65z M95.55,107.74c0.08,0.03,0.15,0.05,0.22,0.05 c0.02-0.05,0.04-0.1,0.07-0.14c-0.06,0.01-0.14,0.01-0.23,0C95.59,107.68,95.57,107.71,95.55,107.74z M106.11,133.02 c-0.02-0.01-0.03,0-0.05,0l-0.04,0.15c0,0.01,0.01,0.02,0.01,0.03c0.17,0.05,0.28,0.02,0.37-0.01c0-0.03-0.01-0.05,0-0.1 c0.07-0.07,0.26-0.22,0.27-0.41c-0.08-0.03-0.17-0.06-0.26-0.1c-0.07,0.07-0.14,0.12-0.18,0.11c0.03,0.06,0.08,0.12,0.21,0.19 l-0.33-0.03l-0.01,0.02c0.06,0.03,0.07,0.07,0.07,0.1l0.01-0.03l0.03,0.14l-0.13,0.08l0.06-0.14L106.11,133.02z M99.49,99.37 c-0.01,0.01-0.03,0.02-0.04,0.03c0.04,0.05,0.08,0.1,0.14,0.16c0.01-0.04,0.01-0.07,0.02-0.1l-0.04-0.03c-0.01,0,0,0-0.01,0 c0,0,0,0,0-0.01L99.49,99.37z M98.51,98.92C98.51,98.92,98.51,98.92,98.51,98.92L98.51,98.92L98.51,98.92L98.51,98.92z M98.25,99.41l-0.04,0.03l-0.01,0l0,0l0,0l0,0c0.17-0.03,0.3-0.06,0.44-0.09c-0.06-0.05-0.11-0.12-0.13-0.22 C98.47,99.22,98.36,99.33,98.25,99.41z M107.45,125.79c-0.05,0.12-0.11,0.24-0.15,0.33l0.18-0.18c-0.08,0.58-0.62,0.84-0.74,1.56 l0.12-0.04c-0.09,0.49-0.39,0.46-0.28,0.68c0.01-0.01,0.03-0.01,0.04-0.02c0.18-0.22,0.47-0.78,0.46-1.01 c0.2-0.03,0.4-0.69,0.58-0.87C107.59,126.09,107.52,125.94,107.45,125.79z M107.82,126.61c0-0.01,0.01-0.03,0-0.05 c-0.04-0.08-0.08-0.16-0.12-0.24c-0.07,0.02-0.16-0.01-0.22,0.24C107.45,126.97,107.77,126.44,107.82,126.61z M95.29,108.79 c0-0.01,0.01-0.02,0.01-0.03l-0.07-0.02C95.25,108.76,95.27,108.78,95.29,108.79z M93.46,113.51c0.03-0.01,0.05-0.02,0.08-0.03 C93.53,113.46,93.5,113.48,93.46,113.51z M93.64,112.01L93.51,112c0.02,0.03,0.05,0.05,0.07,0.07c0.03-0.01,0.06-0.03,0.1-0.05 L93.64,112.01z M93.59,112.08L93.59,112.08c-0.03,0.01-0.04,0.02-0.04,0.02C93.56,112.09,93.58,112.08,93.59,112.08z M93.69,112.03L93.69,112.03L93.69,112.03c-0.03,0.02-0.06,0.03-0.1,0.05c0,0,0,0,0,0C93.61,112.07,93.65,112.04,93.69,112.03z M93.22,114.06l0.07-0.17c-0.04-0.01-0.08-0.02-0.14-0.04C93.3,113.95,93.08,113.99,93.22,114.06z M93.73,106.99 c0-0.01-0.01-0.01-0.01-0.02c-0.01,0.02-0.01,0.03-0.02,0.05C93.71,107.01,93.72,107,93.73,106.99z M95.2,107.45 c-0.04-0.01-0.08-0.02-0.12-0.04c0,0,0,0,0,0.01c0.04,0.03,0.05,0.05,0.06,0.06C95.16,107.47,95.18,107.46,95.2,107.45z M95.37,108.58l-0.09-0.02c0.01,0.01,0.04,0.03,0.07,0.05C95.36,108.6,95.37,108.59,95.37,108.58z M94.93,96.69 c-0.08-0.06-0.16-0.13-0.24-0.2C94.62,96.75,94.64,96.92,94.93,96.69z M95.06,109.23c0.01-0.02,0.02-0.03,0.03-0.04l-0.08-0.01 C95.02,109.19,95.03,109.21,95.06,109.23z M95.42,108.33C95.42,108.33,95.42,108.33,95.42,108.33c-0.14-0.02-0.17,0.05-0.09,0.16 l0.06,0.03C95.4,108.45,95.42,108.38,95.42,108.33z M93.09,113.19c-0.05-0.03-0.1-0.05-0.16-0.06c-0.03,0.05-0.05,0.1-0.14,0.14 l-0.05,0.04c0.1,0.07,0.19,0.14,0.2,0.19C92.98,113.46,93.05,113.31,93.09,113.19z M103.35,145.81c0.03-0.01,0.05-0.03,0.08-0.04 c-0.07-0.01-0.15-0.04-0.23-0.09C103.23,145.75,103.28,145.78,103.35,145.81z M113,120.34c-0.07,0.09-0.06,0.13-0.03,0.13 c0,0,0.01-0.01,0.01-0.01C112.99,120.44,112.98,120.4,113,120.34z M109.93,134.39c0.01-0.01,0.01-0.01,0.01-0.02 c-0.04-0.01-0.08,0-0.13,0.03c0,0,0,0.01,0,0.01C109.84,134.4,109.88,134.4,109.93,134.39z M112.07,140.4 c0.04-0.03,0.08-0.06,0.12-0.09c-0.01-0.04-0.04-0.09-0.08-0.16l0.14,0.11c0.02-0.02,0.05-0.04,0.07-0.05 c-0.01-0.05,0.01-0.06,0.05-0.04c0.23-0.17,0.47-0.33,0.69-0.51c0.01-0.01,0.02-0.02,0.03-0.03c-0.02-0.04-0.06-0.08-0.11-0.14 c0.07,0.05,0.1,0.09,0.13,0.13c0.9-0.81,1.88-1.55,2.73-2.42l0.7-0.69c0.01-0.12,0.18-0.36,0.21-0.51 c-0.03-0.02-0.06-0.03-0.1-0.05c-0.01-0.01-0.02-0.01-0.03-0.02c-0.27,0.43-0.46,0.01-0.66,0.65c-0.13-0.18-0.31-0.54-0.53-0.41 c0.18-0.15,0.27-0.63,0.42-0.66c-0.08-0.05-0.17-0.09-0.25-0.14c-0.09-0.05-0.18-0.1-0.27-0.15c-0.25,0.24-0.52,0.48-0.69,0.44 c0.19-0.14,0.25-0.5,0.34-0.64c0,0,0,0-0.01,0c0,0,0,0,0,0l-0.82,0.84c-0.09-0.01,0.21-0.44,0.03-0.36 c-0.07,0.15-0.17,0.21-0.26,0.32c0-0.08-0.38-0.02-0.13-0.59c0.08-0.23,0.18-0.05,0.2-0.29c-0.14-0.07-0.24,0.12-0.39,0.05 l0.03-0.07c-0.05-0.13-0.39,0.09-0.44,0.45c0.06,0.05,0.14-0.34,0.16-0.13c-0.22,0.28-0.43,0.29-0.57,0.22 c0.09-0.06,0.16-0.21,0.25-0.36c-0.39,0.32-0.64,0.37-0.93,0.43c-0.05,0.07-0.08,0.1-0.03,0.01c0.01,0,0.02-0.01,0.03-0.01 c0.07-0.1,0.2-0.27,0.23-0.29c-0.11-0.45-0.79,0.24-0.75-0.4c0.06-0.03-0.16,0.38-0.13,0.31c-0.11-0.1,0.08-0.48-0.07-0.38 c0.1-0.23-0.14,0.02-0.26,0.04c-0.12,0.14,0.03-0.12,0.11-0.11c-0.2,0.11-0.86,0.26-0.99-0.19c-0.06,0.15-0.42,0.47-0.48,0.43 l0.18-0.34c0.01-0.08-0.01-0.1-0.04-0.13c-0.02,0.01-0.03,0.01-0.02-0.01c-0.04-0.02-0.07-0.04-0.08-0.09 c-0.01,0-0.01,0-0.01-0.01c-0.14,0.06-0.29,0.16-0.28-0.11c0.01,0.07,0.32-0.44,0.2-0.46c-0.22-0.02-0.13,0.15-0.33,0.2 l-0.16,0.1c-0.16,0.34-0.15-0.12-0.24,0.3c0.1-0.29-0.35,0.06-0.08-0.5l0.22-0.44c-0.1,0-0.34,0.42-0.48,0.59l0.06-0.21 c-0.31,0.68-0.17-0.14-0.49,0.35c-0.07-0.31-0.42-0.2-0.32-0.66c-0.22,0.15-0.44,0.35-0.53,0.14c0.06-0.05,0.1-0.06,0.17-0.2 c-0.01-0.24-0.11-0.07-0.24,0.01c0.06-0.09-0.02-0.48-0.03-0.77c-0.21,0.15-0.32,0.55-0.42,0.77c0.08-0.38-0.07-0.29-0.21-0.21 c0.03,0.05,0.05,0.11,0.15,0.18c-0.38-0.16-0.33,0.07-0.4,0.13c-0.12,0.06,0.31,0.22,0.29,0.25c-0.2-0.07-0.09,0.14-0.34-0.03 c-0.05-0.05,0.22,0,0.06-0.12c-0.17,0.01-0.52-0.12-0.31,0.09c0.16,0.16,0.77,0.24,0.47,0.33c-0.08-0.08-0.23-0.14-0.36-0.23 l-0.26,0.1l0.35,0.13c-0.1-0.01-0.12-0.03-0.17-0.04c0.35,0.18,0.03,0.3,0.43,0.48c0.01,0.1-0.31,0.09-0.37,0.16l-0.03-0.03 c-0.24,0.03-0.15,0.2,0.06,0.37l-0.08-0.03c-0.05,0.04-0.04,0.19,0.15,0.33c-0.31,0.04-1.35-0.42-0.96-0.11 c-0.04,0.14,0.57,0.44,0.82,0.46c-0.32,0.17,0.15,0.65-0.47,0.69c0.13,0.09,0.23,0.09,0.29,0.2c-0.27,0.32,0.15,0.91-0.64,0.96 c-0.11-0.16-0.35-0.13-0.55-0.2c0.29,0.2-0.36-0.01,0.17,0.21c0.32,0.1,0.47,0.16,0.64,0.11c0.1,0.28-0.02,0.61-0.36,0.62 c0.17-0.01,0.25,0.07,0.33,0.15c-0.5-0.19-0.63-0.06-0.5,0.13l0.3,0.12l-0.35-0.03c0.08,0.08,0.63,0.28,0.29,0.29l-0.34-0.08 c0.21,0.21,0.58,0.54,0.27,0.58l-0.49-0.05c0.03,0.08,0.27,0.27,0.43,0.21c-0.35,0.14-0.44,0.28-0.85,0.21 c0.81,0.73,0.65,1.32,0.42,1.76l-0.23-0.09c-0.26,0.05,0.38,0.21,0.19,0.24c-0.21-0.12-0.51-0.07-0.75-0.26 c-0.31,0.09,0.32,0.37,0.39,0.52c0.3,0.12-0.16-0.16,0.22,0c0.1,0.06-0.32,0.16,0.13,0.35c-0.2-0.02-0.52-0.17-0.7-0.26 l0.19,0.19c-0.58-0.05-0.86-0.64-1.57-0.73l0.04,0.13c-0.52-0.07-0.45-0.45-0.7-0.26c0.19,0.19,0.82,0.51,1.06,0.49 c0.05,0.27,1.06,0.49,0.94,0.72c-0.29-0.03,0-0.22-0.39-0.3c-0.41-0.01,0.13,0.3-0.04,0.36c0.21-0.05,0.64,0.2,0.7,0.31 c-0.26,0.05-0.41-0.23-0.52-0.07c0.26,0.12,0.4,0.35,0.63,0.28c0.58,0.27-0.23,0.13,0.2,0.38c-0.44-0.09-0.92-0.52-1.2-0.4 c0.42,0.11,0.47,0.43,1.11,0.54c-0.14,0.04-0.47-0.07-0.7-0.21c-0.29,0.02,0.65,0.52-0.17,0.28l0.4,0.18 c-0.15-0.01-0.27,0-0.51-0.02c-0.04,0.09,0.46,0.5-0.17,0.28c0.05,0.05-0.05,0.26,0.42,0.33c0.31-0.04-0.26-0.27,0.35-0.14 c-0.51-0.07,0,0.22,0.13,0.35l-0.25-0.07c0.08,0.08-0.01,0.17,0.24,0.29c-0.13-0.08-0.3-0.12-0.37-0.11l0.35,0.18 c0.12,0.25-0.67-0.18-0.62,0.04l-0.24-0.24c0.05,0.05-0.32-0.01-0.23,0.12c0.33,0.15,0.71,0.36,0.96,0.48c0,0,0,0,0,0.01 c2.81-1.46,5.48-3.14,8-5.03C112.02,140.41,112.04,140.4,112.07,140.4z M116.58,136.07l-0.23,0.44l-0.03-0.01L116.58,136.07z M112.48,135.87c0.15-0.09-0.04,0.23-0.05,0.27C112.34,136.13,112.59,135.89,112.48,135.87z M104.74,154.74 c-0.13-0.01-0.26-0.03-0.39-0.04c-0.01,0.05-0.01,0.11,0.01,0.17C104.48,154.81,104.61,154.78,104.74,154.74z M95.98,129.62 c-0.05,0.1-0.04,0.13-0.02,0.13c0,0,0.01-0.01,0.01-0.01C95.97,129.71,95.96,129.68,95.98,129.62z M103.86,145.56l-0.3-0.23 c-0.1-0.06-0.59-0.1-0.63,0.04c0.07,0.11,0.37,0.32,0.6,0.36C103.64,145.67,103.75,145.61,103.86,145.56z M103.42,145.46 c0.12-0.01,0.27,0.1,0.28,0.15l-0.3-0.07C103.43,145.51,103.48,145.51,103.42,145.46z M89.42,149.68 c0.1,0.04,0.21,0.08,0.31,0.12c-0.04-0.02-0.08-0.04-0.11-0.06c-0.07-0.04-0.14-0.08-0.2-0.11 C89.42,149.65,89.41,149.66,89.42,149.68z M71.91,130.22c0.32,0.03,0.55,0.63,0.8,1.04l0.19-0.43c0.11,0.01,0.18,0.09,0.25,0.18 c0,0,0,0,0-0.01c-0.38-0.91-0.73-1.84-1.04-2.78c-0.08,0.11-0.07,0.1,0,0c-0.02-0.06-0.04-0.11-0.06-0.17l0,0 c-0.14-0.22-0.27-0.42-0.38-0.7c0.07,0,0.11-0.02,0.14-0.05c-0.18-0.6-0.35-1.2-0.51-1.81c0,0,0,0,0,0 c-0.15-0.61-0.29-1.22-0.42-1.83c0.15,1.54,0.29,3.1,0.49,4.54l-0.26-0.16c0.11,0.74,0.93,1.39,1.17,2.12 C72.16,130.2,72.01,129.99,71.91,130.22z M71.96,129.37c0.11-0.08,0.22,0.05,0.36,0.1C72.25,129.86,72.1,129.82,71.96,129.37z M99.58,138.77c-0.01-0.03,0.07,0,0.17,0.03l0.05-0.16l0.06-0.18c-0.13-0.32,0-0.59,0.28-0.81l0.26-0.76l0.59-1.7 c-0.1-0.39,0.03-0.73-0.02-1.11c0.09,0.04,0.22,0.1,0.35,0.14l0.01-0.02l0.01-0.02c-0.24-0.14-0.29-0.27-0.33-0.39 c0.48,0.11-0.35-0.35-0.05-0.4l0.1,0.05c-0.45-0.27,0.33-0.06-0.22-0.34l0.38,0.06c-0.63-0.27,0.39-0.03,0.09-0.23l-0.13-0.04 c-0.13-0.14,0.21-0.06,0.13-0.18l0.08,0.02c-0.11-0.23,0.29-0.21-0.22-0.38c0.41,0.08,0.15,0.22,0.7,0.33l0-0.01l0.02-0.06 c-0.27-0.72,0.02-1.26,0.21-1.82c0.19,0,0.28,0,0.42,0.02l0.02-0.06l0.01-0.03c-0.02-0.09-0.04-0.19-0.21-0.29 c0,0.02,0.25,0.05,0.3,0.03l0.02-0.05l0.01-0.02c-0.11-0.09-0.46-0.25-0.26-0.28c0.08,0.06,0.19,0.11,0.31,0.16l0.01-0.04l0,0 c-0.08-0.09-0.14-0.21-0.15-0.25c-0.03-0.02-0.07-0.01-0.12,0.06l0.09-0.19c-0.03-0.01-0.06-0.02-0.1-0.03 c-0.07,0.18-0.15,0.42-0.2,0.28l0.13-0.3c0,0,0,0,0,0c0,0,0,0,0,0c-0.31,0.47-0.49,0.24-0.69,0.38c0.02-0.04,0.04-0.12,0.04-0.12 c-0.18,0.02-0.3-0.19-0.55,0c-0.02-0.11,0.11-0.43,0.11-0.58c-0.03-0.01-0.06-0.02-0.09-0.03c-0.17,0.51-0.35,0.14-0.44,0.82 c-0.12-0.14-0.28-0.42-0.43-0.25c0.13-0.2,0.14-0.7,0.26-0.75c-0.14-0.04-0.28-0.09-0.42-0.13c-0.17,0.3-0.35,0.6-0.48,0.62 c0.13-0.19,0.14-0.56,0.2-0.7c0,0,0,0-0.01,0l-0.54,1.02c-0.07,0.01,0.12-0.48-0.01-0.35c-0.04,0.16-0.1,0.25-0.17,0.37 c0-0.08-0.29,0.08-0.16-0.52c0.03-0.24,0.13-0.1,0.12-0.33c-0.11-0.02-0.17,0.18-0.29,0.16l0.02-0.08 c-0.05-0.11-0.28,0.19-0.29,0.54c0.05,0.03,0.07-0.36,0.1-0.17c-0.14,0.33-0.3,0.39-0.41,0.37c0.06-0.08,0.1-0.24,0.16-0.41 c-0.26,0.41-0.45,0.52-0.65,0.66c-0.03,0.08-0.05,0.12-0.02,0.02c0.01-0.01,0.02-0.01,0.02-0.02c0.05-0.11,0.12-0.31,0.15-0.34 c-0.12-0.4-0.57,0.44-0.6-0.17c0.04-0.04-0.08,0.41-0.07,0.33c-0.09-0.06,0.01-0.47-0.09-0.34c0.05-0.24-0.1,0.06-0.19,0.11 c-0.06,0.12-0.02,0,0.02-0.08c-0.18,0.17-0.57,0.35-0.69-0.02c-0.03,0.16-0.27,0.55-0.31,0.52l0.1-0.37 c0-0.08-0.02-0.1-0.04-0.11c-0.01,0.01-0.02,0.01-0.02-0.01c-0.03-0.01-0.05-0.02-0.06-0.07c0,0-0.01,0-0.01,0 c-0.1,0.09-0.2,0.23-0.22-0.04c0.02,0.07,0.2-0.5,0.11-0.49c-0.16,0.04-0.08,0.17-0.23,0.27l-0.11,0.14 c-0.08,0.36-0.12-0.07-0.15,0.34c0.05-0.3-0.25,0.15-0.11-0.45l0.12-0.47c-0.07,0.02-0.21,0.48-0.31,0.68l0.02-0.22 c-0.17,0.73-0.14-0.09-0.33,0.46c-0.08-0.28-0.33-0.08-0.3-0.55c-0.15,0.2-0.29,0.45-0.38,0.27c0.04-0.06,0.07-0.08,0.11-0.24 c-0.03-0.23-0.09-0.04-0.18,0.07c0.04-0.11-0.06-0.46-0.09-0.73c-0.14,0.2-0.19,0.6-0.24,0.84c0.05-0.74-0.37,0.41-0.37-0.26 c0.05-0.09,0.22-0.33,0.16-0.53c0.04-0.74-0.29,0.5-0.37,0.13l-0.07,0.61c0-0.38-0.28,0.31-0.16-0.3 c-0.08,0.18-0.13-0.14-0.2,0.2c0.04,0,0.08,0.01,0.12,0.02c-0.05,0.01-0.08,0.01-0.13,0.02c-0.01,0.04-0.01,0.07-0.02,0.13 c-0.02-0.05-0.04-0.08-0.06-0.11c-0.33,0.06-0.37,0.16-0.2,0.21l0.33-0.03l-0.33,0.1c0.11,0.02,0.69-0.05,0.38,0.08l-0.34,0.07 c0.28,0.06,0.74,0.13,0.47,0.26l-0.46,0.15c0.06,0.04,0.35,0.07,0.48-0.03c-0.27,0.21-0.29,0.32-0.7,0.44 c1.01,0.15,1.16,0.55,1.15,0.89l-0.24,0.03c-0.21,0.13,0.43-0.03,0.28,0.06c-0.24,0.01-0.49,0.16-0.78,0.14 c-0.23,0.18,0.45,0.09,0.58,0.16c0.32-0.05-0.22-0.03,0.19-0.09c0.12-0.01-0.21,0.22,0.27,0.15c-0.18,0.07-0.54,0.11-0.74,0.13 l0.25,0.04c-0.54,0.2-1.05-0.03-1.72,0.2l0.09,0.06c-0.07,0.02-0.11,0.02-0.17,0.03c0.01,0.03,0.01,0.06,0.02,0.09 c0.24-0.02,0.47-0.07,0.57-0.13c0.17,0.14,1.16-0.14,1.15,0.04c-0.27,0.1-0.1-0.13-0.48-0.02c-0.37,0.16,0.25,0.13,0.13,0.23 c0.16-0.12,0.66-0.14,0.76-0.11c-0.21,0.13-0.46,0.03-0.49,0.17c0.28-0.03,0.51,0.04,0.68-0.1c0.63-0.08-0.15,0.17,0.35,0.13 c-0.43,0.13-1.04,0.08-1.23,0.27c0.42-0.11,0.61,0.05,1.22-0.15c-0.11,0.08-0.44,0.16-0.71,0.17c-0.24,0.13,0.81,0.02-0.02,0.23 l0.44-0.07c-0.14,0.06-0.23,0.11-0.46,0.2c0.01,0.07,0.63,0.09-0.02,0.23c0.07,0.01,0.07,0.17,0.51,0.01 c0.25-0.16-0.35-0.04,0.25-0.23c-0.48,0.18,0.09,0.13,0.27,0.14l-0.25,0.07c0.11,0.01,0.07,0.1,0.34,0.06 c-0.15,0.01-0.32,0.06-0.37,0.1l0.39-0.05c0.22,0.09-0.67,0.19-0.53,0.3l-0.32-0.03c0.07,0.01-0.28,0.14-0.15,0.17 c0.35-0.06,0.78-0.11,1.06-0.16c0.17,0.04-0.39,0.13-0.01,0.11l-0.44,0.01c-0.12,0.01-0.56,0.2-0.53,0.3 c0.13,0.03,0.66,0.01,0.83-0.14c0.02,0.05-0.18,0.17-0.44,0.19c0.14,0.08,0.37-0.11,0.61-0.07c-0.22,0.1-0.53,0.31-0.85,0.47 l-0.6,0.05l0.01,0.07c-0.48,0.03-0.35,0.14-0.85,0.21c-0.07,0.07,0.12,0.08,0.26,0.09c0.74-0.34,1.12-0.13,1.82-0.36 c0.25,0.13-1.7,0.58-0.52,0.47c0.14-0.06,0.52-0.12,0.56-0.16c-0.03,0-0.06-0.01-0.05-0.04c0.05,0.01,0.06,0.02,0.05,0.04 c0.16,0.02,0.65-0.12,0.44,0.06c-0.32-0.02-0.69,0.31-1.16,0.28c0.24-0.06,0.15-0.13,0.08-0.13c-0.26,0.12-0.72,0.19-0.69,0.31 c0.09,0.05,0.14,0.15,0.5,0.03c0.41-0.12-0.08-0.1,0.35-0.17c0.19,0.1-0.43,0.3,0.32,0.15c-0.09-0.07,0.33-0.21,0.61-0.29 l0.2,0.05l-0.28,0.06c-0.14,0.22,0.51-0.09,0.48,0.08l-0.51,0.23c-0.47,0.1,0.13-0.29-0.61-0.05c0,0.11,0.39,0.04,0.23,0.19 l-0.17-0.03c-0.01,0.04-0.99,0.37-0.37,0.35c0.25,0.01,0.27-0.06,0.55-0.14c0.14,0.14,0.44,0.1,0.51,0.2 c-0.55,0.14,0.01,0.21-0.59,0.26c0.3-0.15,0.2-0.38-0.34-0.29c-0.63,0.26,0.05-0.16-0.62,0c0.02,0.13-0.49,0.29-0.89,0.43 c0.01,0.03,0.01,0.05,0.02,0.08c0.04,0,0.07,0,0.09,0c0.4-0.1,0.38-0.15,0.78-0.27c-0.06,0.18,0.21,0.27,0.61,0.23 c-0.18,0.11-0.57,0.22-0.63,0.17c0.17,0.15,0.18,0.36,0.12,0.57c0.52-0.28,0.3,0.03,0.56-0.04c-0.21,0.08-0.43,0.17-0.65,0.23 c0.32,0.03-0.36,0.11-0.32,0.23c0.31,0.03,0.58,0.1,0.73,0.2c-0.42,0.33,0.13,0.43,0.19,0.57c-0.2,0.15-0.67,0.28-0.81,0.4 c0.01,0.02,0.01,0.03,0.01,0.05c0.15-0.04,0.47-0.26,0.3-0.06l-0.12,0.03c0.14,0-0.29,0.41,0.53,0.16l-0.62,0.18c0,0,0,0,0,0.01 c0,0.01,0,0.01,0.01,0.02c0.03,0.01,0.12,0,0.17,0c-0.06,0.02-0.1,0.04-0.15,0.07c0.02,0.05,0.03,0.11,0.05,0.16 c0,0.03,0.01,0.05,0.01,0.08l0.12-0.07c0.35,0.06,0.04,0.31,0.24,0.42l-0.3,0.11c0,0.01,0,0.01,0,0.02l0.2,0.01 c-0.07,0.02-0.13,0.05-0.18,0.07c0.08,0.63,0.16,1.11,0.27,1.52c0.24,0.56,0.49,1.13,0.76,1.68c0.02,0.04,0.05,0.08,0.07,0.13 c0.19,0.31,0.4,0.65,0.68,1.07c-0.07-0.02-0.12-0.06-0.16-0.08c0.02,0.03,0.03,0.06,0.05,0.09c0.01,0.01,0.01,0.03,0.02,0.04 c0.45,0.21,0.85,1.64,1.4,1.59l0.39,0.69l2.21-6.37l0.69-1.98C99.67,138.91,99.63,138.85,99.58,138.77z M101.18,129.58 l-0.13,0.48l-0.02,0L101.18,129.58z M93.08,129.54l0.05-0.24l0.04,0.13L93.08,129.54z M93.99,134.45 c0.01-0.02,0.05-0.04-0.02-0.05c0.1-0.06,0.28-0.07,0.31-0.04L93.99,134.45z M94.48,134.95c-0.03-0.02-0.25-0.04,0.01-0.13 C94.31,134.89,94.83,134.88,94.48,134.95z M94.19,136.38c-0.02-0.04,0.07-0.09,0.18-0.14C94.33,136.28,94.51,136.3,94.19,136.38z M94.47,137.21l-0.52-0.08C94.19,137.07,94.41,137.15,94.47,137.21z M94.26,137.77c-0.03-0.02-0.15,0.02-0.26,0.04 c-0.08,0.02,0.09-0.07,0.13-0.09C94.16,137.74,94.38,137.7,94.26,137.77z M94.38,137.58c0.07-0.01,0.13-0.02,0.18,0 C94.39,137.62,94.36,137.61,94.38,137.58c-0.12,0.01-0.25,0.05-0.4,0.11c0.03-0.01,0.06-0.02,0.1-0.04 c0.11-0.14,0.54-0.36,0.84-0.41c-0.02,0.07-0.28,0.09-0.41,0.16C94.77,137.37,94.42,137.52,94.38,137.58z M94.73,136.26 c0.18-0.11,0.29-0.13,0.31-0.06L94.73,136.26z M98.08,130.78c-0.07,0.01,0.1-0.29,0.01-0.27 C98.19,130.37,98.08,130.74,98.08,130.78z M87.04,130.1c0.11-0.57,0.17-0.95,0.3-1.15c-0.01-0.08-0.01-0.15-0.02-0.23 c-0.01-0.07-0.01-0.15-0.02-0.22c-0.02,0-0.04-0.01-0.07-0.01c-0.01-0.07,0.02-0.14,0.05-0.21c-0.02-0.16-0.03-0.33-0.05-0.5 c0,0,0,0-0.01,0c0,0,0,0,0.01,0c0-0.04-0.01-0.07-0.01-0.11c-0.01,0-0.01,0-0.02,0c-0.11-0.09-0.15-0.2-0.14-0.3l0.04-0.16 l0.02-0.04l0-0.01l0,0l0,0c0.01-0.01,0.01-0.01,0.02-0.02c-0.02-0.1-0.04-0.19-0.07-0.26c-0.08,0.08-0.16,0.14-0.25,0.22l-0.06,0 l-0.5-0.02c-1.34-0.03-2.67-0.17-4.02-0.13c-2.1-0.01-4.19,0.04-6.29,0.19c0.85,1.88,1.77,3.55,2.73,5.49l-0.64-0.13 c0.53,0.22-0.11,0.39,0.17,0.75c0.1-0.64,0.74,0.29,1.14,0.4c0.22,1.15,1.43,2.08,2.23,2.68l-0.25,0.23 c1.1,0.39,1.42,1.6,2.12,2.64c-0.02,0.21-0.09,0.58,0.2,0.81c0.87,0.09,1.09,0.36,2.01,0.8c0.47,0.53,1.29,1.32,1.71,1.95 c1.6,0.72,3.03,1.7,4.54,2.54C89.19,140.73,87.67,135.37,87.04,130.1z M86.94,127.32C86.75,127.49,86.81,127.44,86.94,127.32 L86.94,127.32z M96.06,129.71c0-0.01,0-0.01,0.01-0.03c-0.03,0-0.06,0.02-0.09,0.06c0,0,0,0.01,0,0.01 C95.99,129.75,96.02,129.73,96.06,129.71z M117.25,154.21c0-0.02,0-0.03,0-0.05c-0.2,0.04-0.4,0.08-0.6,0.11 C116.76,154.32,116.94,154.32,117.25,154.21z M133.58,110.96c0,0.03,0,0.05,0,0.08c0.08-0.01,0.18,0,0.29,0.01 C133.81,110.97,133.73,110.92,133.58,110.96z M133.98,111.06c-0.05-0.01-0.07,0-0.12-0.01c0,0,0,0.01,0.01,0.01 C133.91,111.06,133.93,111.06,133.98,111.06z M141.48,111.54c-0.43-0.23-1.75-0.53-2.54-0.85l1.05-0.63l-0.7,0.02 c0.9-0.51-0.46-0.35,0.04-0.87c-0.48-0.05-1.05,0.11-1.51,0.23c1.4,0.84-1.58,1.08-1.19,1.83c-1.44,0.11-1.39-0.89-2.06-1.05 l0.02,0.17l-0.22-0.19c-0.02,0-0.04,0-0.06,0c-0.3,1.74,0.54,0.55,0.25,2.31l-0.66,0.76c-0.33-0.38,0.2-1.8-0.03-2.19 c-0.12,0.01-0.22,0.01-0.3,0.01c-0.06,1.04,0.19,1.47-0.12,2.48l-0.05-0.81c-0.08,0.41-1.15,0.66-0.76,2.34 c0.07,0.85,0.23,0.26,0.51,0.33c-0.28,1.81-0.07,2.42-0.31,3.58c-0.49-0.37-0.61,2-0.83,0.6c0.54-0.47,1.01-3.1,0.61-3.82 c-0.78,0.53,0.37-1.38-0.3-1.87c-0.19,1.43-0.88,1.23-1.34,1.38c-0.11,0.38,0,0.78,0.02,1.02c0.37,0.24,0.47-0.26,0.89-0.21 c-0.31,1.25-0.46,2.47-0.45,3.41c0.06,0.02,0.13,0.03,0.18,0.05l-0.18-0.02c0,0.22,0.01,0.44,0.03,0.62 c-0.34,0.47-0.69,0.19-0.56-0.43l-0.17,0.71c0.72,0.27,1.43,0.56,2.1,0.84c-0.73-0.86,1.16,0.1,1.39-0.08 c0.03,0.24,0.12,0.52-0.08,0.69c1.24,0.12-0.17,0.33,0.97,0.73c1.24,0.12,2.72,0.39,4.03,0.73c0.72,0.51,1.73,0.87,2.75,1.15 c0.29-1.57,0.41-3.2,0.51-4.75c0.64-2.08,1.33-0.01,0.89-1.75c0.16-0.13-0.29-0.12-0.13-0.13c-0.15-0.66,0.96-1,0.53-1.47 c-0.48,0.18-0.28-0.31-0.57-0.32c0.28-1.31,0.75-1.62,0.31-2.65l0.26,0.06c-0.51-0.66-0.63-1.43-0.83-2.12 c-0.45-0.03-0.87-0.2-0.55-0.42C141.14,111.07,142.5,111.29,141.48,111.54z M133.82,115.96c-0.14,0.03-0.15-0.22-0.24-0.39 C133.9,115.07,133.98,115.23,133.82,115.96z M133.12,115.04c0.05-0.44,0.18-0.67,0.33-0.88c0.02-0.07,0.04-0.12,0.08-0.11 c-0.03,0.04-0.05,0.08-0.08,0.11C133.37,114.45,133.43,115.24,133.12,115.04z M134.51,120.74c-0.22,0.03-0.28,0.14-0.29,0.29 c-0.01-0.02-0.02-0.04-0.03-0.06c-0.84-0.45-1.44-1.16-0.86-1.28c0.54,0.23-0.11,0.27,0.07,0.48 C133.95,120.11,134.17,120.53,134.51,120.74c0.15-0.02,0.36,0,0.68,0.06C134.89,120.91,134.69,120.85,134.51,120.74z M135.33,121.5c-0.06,0.07-0.3-0.22-0.36-0.29c0.3,0.08,0.65-0.04,0.84,0.17C135.5,121.3,135.5,121.44,135.33,121.5z M137.56,111.5c0.33-0.02,1.03-0.19,1.33,0.06C138.55,111.39,137.31,111.85,137.56,111.5z M109.83,134.27 c-0.08,0.08-0.07,0.12-0.04,0.13c0.01,0,0.01,0,0.02-0.01C109.81,134.36,109.81,134.33,109.83,134.27z M144.56,86.98 c-0.52,1.27-1.16,2.44-2.13,3.26c0.5,0.69,0.87,1.48,1.28,2.16C144.45,90,145.88,87.65,144.56,86.98z M156.93,71.23 c-2.52-2.19-8.08-0.6-7.87,3.37C152.34,77.56,155.71,73.78,156.93,71.23z M133.47,111.06c0.03,0.01,0.06,0.01,0.1,0.01 c0-0.01,0-0.02,0-0.03C133.54,111.05,133.51,111.05,133.47,111.06z M108.5,155l-0.09,0.1c0.51,0.15,0.65,0.05,0.72-0.09 c-0.14,0-0.28,0-0.42,0C108.63,155,108.57,155,108.5,155z M74.22,116.09c-0.19,1.4-0.09,2.85,0.03,3.92l-0.33,0.08 c0.77,0.51,0.49,1.95,1.02,2.67c-0.01,0.1,0.01,0.2,0.01,0.31l1.87-0.09c0.96-0.08,1.92-0.11,2.88-0.11 c0-0.06-0.06-0.14-0.2-0.23c1.43,0.12,3.68,0.37,4.63,0.24c-0.1,0.03-0.15,0.07-0.17,0.11c0.51,0.02,1.02,0.05,1.53,0.07 l1.09,0.05l0.54,0.03l0.03,0c0-0.11,0.01-0.22,0.01-0.34c-0.54-0.58-0.43-0.46,0,0c0,0,0,0,0-0.01c0,0,0,0,0,0 c-0.24-0.67-0.76-1.42-0.5-2.44c0.13,0.65,0.48,0.08,0.66,0.02c0-0.05,0.01-0.1,0.02-0.15l-0.77-2.31 c0.05-0.6,0.5-0.06,0.46-0.94c-0.17,0.02-0.2-0.37-0.28-0.65c0.11-0.21,0.35-2.49,0.99-2.6c0.28-0.2-0.07,0.98,0.28,0.38 c0.24-1.06,0.08-1.15,0.36-2.22l0.08,0c0.04-0.09,0.07-0.2,0.1-0.32l-0.07-0.01c-0.51-0.1-1.07-0.27-1.58-0.44 c0.38,0.03,0.39-0.14,0.59-0.26c-1.48-0.02-2.93-0.36-4.47-0.69c-0.13,0.04-0.22,0.06-0.18-0.04c0.06,0.01,0.12,0.03,0.18,0.04 c0.19-0.06,0.48-0.19,0.64-0.17c-1.83-1-4.18-0.84-5.6-1.95c0.29,0.05,0.01,0.44,0.02,0.36c-0.94-0.36-0.76-0.75-1.42-0.82 c0.02-0.26-0.8-0.19-1.47-0.34c-0.28,0.04-0.22-0.06,0.04-0.07c-0.24-0.04-0.56-0.11-0.9-0.19l0.23,0.9 c-0.27,0.34-0.33-0.37-0.63-0.4l0,0c-0.06,0.23-0.1,0.46-0.15,0.69c0,0,0,0,0,0c0.37,0.09,0.3,0.55,0.56,0.85 c0.01-0.12,0.08-0.25,0.11-0.35c-0.02-0.05-0.02-0.09-0.04-0.14c0.06,0.03,0.06,0.08,0.04,0.14c0.12,0.36,0.1,0.71,0.01,1.24 c-0.12-0.44-0.36,0.17-0.47-0.01c0.44,0.13,0.47,0.72,0.21,1.44c-0.57,0.48,0.22,1.45,0.01,2.29c-0.43-0.38-0.76-0.87-0.9-1.43 c-0.25,0.48-0.1,0.62-0.27,1.03c0,0.05-0.01,0.11-0.01,0.16c0.32,0.28,0.8,0.52,0.94,1.21l-0.34,0.03 C73.78,115.27,74.31,115.27,74.22,116.09z M86.61,111.78c-0.56-0.17,0.3-0.21-0.44-0.43C86.83,111.42,86.52,111.71,86.61,111.78z M121.45,153.7c0.37-0.16,1.41-0.71,1.77-0.77c0.19-0.23,0.36-0.49,0.54-0.76l0,0c-0.83,0.33-1.67,0.65-2.53,0.92l0,0 c-0.04,0.02-0.07,0.05-0.13,0.07l0.69,0.18C121.78,153.62,121.17,153.46,121.45,153.7z M125.5,151.43 c-0.02,0.01-0.04,0.02-0.06,0.03c0.01,0.01,0.02,0.03,0.02,0.04C125.48,151.47,125.49,151.45,125.5,151.43z M127.8,143.77 c-0.21-0.21-0.42-0.42-0.63-0.63c-0.94-0.77-1.9-1.51-2.88-2.24c-0.31-0.23-0.61-0.46-0.92-0.68c-0.36-0.26-0.73-0.52-1.1-0.77 c-0.81-0.55-1.62-1.1-2.45-1.63c0,0,0,0,0,0c0.55,3.44-0.17-1.06,0.14,0.85l0,0l-0.01,0.01l-0.03,0.03l-0.24,0.23l-0.46,0.46 l-0.89,0.95c-0.61,0.62-1.21,1.27-2.02,1.69c-0.27-0.08-0.45-0.13-0.57-0.14c-0.11,0.1-0.22,0.21-0.33,0.31 c-0.01,0.04-0.03,0.07-0.04,0.12c-0.01-0.02-0.02-0.04-0.03-0.05c-0.01,0.01-0.01,0.01-0.02,0.02c0.1,0.24-0.26,0.16,0,0.52 c-0.57,0.34-0.94,0.84-1.45,1.28c0.05-0.11-0.19-0.5-0.27-0.39l0.12,0.36l-0.11-0.11c-0.02,0.12,0.08,0.39,0.26,0.48 c-1.03,1.48-3.13,1.43-4.38,2.49c-0.44,0.04-0.82,0.48-1.14,0.78c-0.14,0-0.28,0-0.42,0c-0.96,0.6-1.97,1.16-2.99,1.69 c0.36,0.02,0.69,0.07,0.86,0.33c0.71,0.18,0.91-0.24,1.51-0.28c1.27,0.36,1.86,0.24,2.94,0.13c0.01-0.02,0.02-0.05,0.04-0.07 l0.34,0.04c-0.14,0.01-0.26,0.02-0.38,0.04c-0.09,0.16-0.06,0.37,0.24,0.41c0.51-0.16,1.89,0.08,1.32-0.69 c1.5,0.32,3.27-0.74,4.75-0.48c-0.16-0.19,0.17-0.31,0.28-0.48c1.23-0.21,2.61-0.32,3.46-0.94c0.23,0.04-0.18,0.46,0.32,0.32 c0.26-0.17-0.09-0.27,0.22-0.51c1.73-1.13,3.97-1.25,5.55-2.32C126.85,144.51,127.32,144.14,127.8,143.77z M103.93,145.52 c-0.08-0.01-0.16-0.03-0.07,0.04C103.88,145.54,103.91,145.53,103.93,145.52z M122.34,102.1c0,0.01,0,0.01-0.01,0.03 c0.03,0,0.06-0.02,0.1-0.06c0,0,0-0.01,0-0.01C122.41,102.07,122.38,102.08,122.34,102.1z M122.42,102.2 c0.05-0.1,0.04-0.13,0.02-0.13c0,0-0.01,0.01-0.01,0.01C122.43,102.1,122.43,102.13,122.42,102.2z M113.91,87.45 c0-0.01-0.01-0.01-0.01-0.02c-0.03,0.02-0.04,0.06-0.05,0.11c0,0,0.01,0.01,0.01,0.01C113.88,87.53,113.89,87.49,113.91,87.45z M118.06,95.78c-0.17,0.12-0.34,0.24-0.5,0.36l-0.15,0.43l-0.02,0.06c0.1,0.39-0.03,0.73,0.02,1.11 c-0.09-0.04-0.22-0.1-0.35-0.14l-0.01,0.03l0,0.01c0.24,0.14,0.29,0.27,0.33,0.39c-0.48-0.11,0.35,0.35,0.05,0.4l-0.1-0.05 c0.45,0.27-0.33,0.06,0.22,0.34l-0.38-0.06c0.63,0.27-0.39,0.03-0.09,0.23l0.13,0.04c0.13,0.14-0.21,0.06-0.13,0.18L117,99.1 c0.11,0.23-0.29,0.21,0.22,0.38c-0.41-0.08-0.15-0.22-0.7-0.33l-0.02,0.07c0.27,0.72-0.02,1.26-0.21,1.82 c-0.19,0-0.28,0-0.42-0.02l-0.03,0.09c0.02,0.09,0.04,0.19,0.21,0.29c0-0.02-0.25-0.05-0.3-0.03l-0.02,0.07 c0.11,0.09,0.46,0.25,0.26,0.28c-0.08-0.06-0.19-0.11-0.31-0.16l-0.01,0.03l-0.01,0.02c0.08,0.09,0.14,0.21,0.15,0.26 c0.03,0.01,0.07,0.01,0.11-0.06l-0.09,0.19c0.03,0.01,0.06,0.02,0.1,0.03c0.07-0.18,0.15-0.42,0.2-0.28l-0.13,0.3c0,0,0,0,0,0 c0.31-0.47,0.49-0.24,0.69-0.38c-0.02,0.04-0.04,0.12-0.04,0.12c0.18-0.02,0.3,0.19,0.55,0c0.02,0.11-0.11,0.43-0.11,0.58 c0.02,0.01,0.04,0.01,0.05,0.02c0.01,0,0.03,0.01,0.04,0.01c0.17-0.51,0.35-0.14,0.44-0.82c0.12,0.14,0.28,0.42,0.43,0.25 c-0.13,0.2-0.14,0.7-0.26,0.75c0.14,0.04,0.28,0.09,0.42,0.13c0.17-0.3,0.35-0.6,0.48-0.62c-0.13,0.19-0.14,0.56-0.2,0.7h0 c0,0,0,0,0.01,0l0.54-1.02c0.07-0.01-0.12,0.48,0.01,0.34c0.04-0.16,0.1-0.25,0.16-0.37c0,0.08,0.29-0.08,0.16,0.52 c-0.03,0.24-0.13,0.1-0.12,0.33c0.11,0.02,0.17-0.18,0.29-0.16l-0.02,0.08c0.05,0.11,0.28-0.19,0.29-0.54 c-0.05-0.03-0.07,0.36-0.1,0.17c0.14-0.33,0.3-0.39,0.41-0.37c-0.06,0.08-0.1,0.24-0.16,0.41c0.26-0.41,0.45-0.52,0.65-0.66 c0.03-0.08,0.05-0.12,0.02-0.02c-0.01,0.01-0.02,0.01-0.02,0.02c-0.05,0.11-0.12,0.31-0.15,0.34c0.12,0.4,0.57-0.44,0.6,0.17 c-0.04,0.04,0.08-0.41,0.07-0.33c0.09,0.06-0.01,0.47,0.09,0.34c-0.05,0.24,0.1-0.06,0.19-0.11c0.06-0.12,0.02,0-0.02,0.08 c0.18-0.17,0.57-0.35,0.69,0.02c0.03-0.16,0.27-0.55,0.31-0.52l-0.1,0.37c0,0.08,0.02,0.1,0.04,0.11 c0.01-0.01,0.02-0.01,0.02,0.01c0.03,0.01,0.06,0.02,0.06,0.07c0,0,0.01,0,0.01,0c0.1-0.09,0.2-0.23,0.22,0.04 c-0.01-0.07-0.2,0.5-0.11,0.49c0.16-0.04,0.08-0.17,0.23-0.27l0.11-0.14c0.08-0.36,0.12,0.07,0.15-0.34 c-0.05,0.3,0.25-0.15,0.11,0.45l-0.12,0.47c0.07-0.02,0.21-0.48,0.31-0.68l-0.02,0.22c0.16-0.73,0.14,0.09,0.33-0.46 c0.08,0.28,0.33,0.08,0.3,0.55c0.15-0.2,0.29-0.45,0.38-0.27c-0.04,0.06-0.07,0.08-0.11,0.24c0.03,0.23,0.09,0.04,0.18-0.07 c-0.04,0.11,0.06,0.45,0.09,0.73c0.14-0.2,0.19-0.6,0.24-0.84c-0.05,0.74,0.37-0.41,0.37,0.26c-0.05,0.09-0.22,0.33-0.16,0.53 c-0.04,0.74,0.29-0.5,0.37-0.13l0.07-0.61c0,0.38,0.28-0.31,0.16,0.3c0.08-0.18,0.13,0.14,0.2-0.19c-0.04,0-0.08-0.01-0.12-0.02 c0.05-0.01,0.08-0.01,0.13-0.02c0.01-0.04,0.01-0.07,0.02-0.13c0.02,0.05,0.04,0.08,0.06,0.11c0.33-0.06,0.37-0.16,0.2-0.21 l-0.33,0.03l0.33-0.1c-0.11-0.02-0.69,0.05-0.38-0.08l0.34-0.07c-0.28-0.06-0.74-0.13-0.47-0.26l0.46-0.15 c-0.06-0.04-0.35-0.07-0.48,0.03c0.27-0.21,0.29-0.32,0.7-0.44c-1.01-0.15-1.16-0.55-1.15-0.89l0.24-0.03 c0.21-0.13-0.43,0.03-0.28-0.06c0.24-0.01,0.49-0.16,0.78-0.14c0.23-0.18-0.45-0.09-0.58-0.15c-0.32,0.05,0.22,0.03-0.19,0.09 c-0.12,0.01,0.21-0.22-0.27-0.15c0.18-0.07,0.54-0.11,0.74-0.13l-0.25-0.03c0.54-0.2,1.05,0.03,1.72-0.2l-0.09-0.06 c0.49-0.17,0.61,0.1,0.74-0.13c-0.25-0.04-0.96,0.02-1.16,0.14c-0.17-0.14-1.16,0.14-1.15-0.04c0.27-0.1,0.1,0.13,0.48,0.02 c0.37-0.16-0.25-0.13-0.13-0.23c-0.16,0.12-0.66,0.14-0.76,0.11c0.21-0.13,0.46-0.03,0.49-0.17c-0.28,0.03-0.51-0.04-0.68,0.1 c-0.63,0.08,0.15-0.17-0.35-0.13c0.43-0.13,1.04-0.08,1.23-0.27c-0.42,0.11-0.61-0.05-1.22,0.15c0.11-0.08,0.44-0.16,0.71-0.17 c0.24-0.13-0.81-0.02,0.02-0.23l-0.44,0.07c0.14-0.06,0.23-0.11,0.46-0.2c-0.01-0.07-0.63-0.09,0.02-0.23 c-0.07-0.01-0.08-0.17-0.51-0.01c-0.25,0.16,0.35,0.04-0.25,0.23c0.48-0.18-0.09-0.12-0.27-0.14l0.25-0.07 c-0.11-0.01-0.07-0.1-0.34-0.06c0.15-0.01,0.32-0.06,0.37-0.1l-0.39,0.05c-0.22-0.09,0.67-0.19,0.53-0.3l0.32,0.03 c-0.07-0.01,0.28-0.14,0.15-0.17c-0.35,0.06-0.78,0.11-1.06,0.16c-0.17-0.04,0.39-0.13,0.01-0.11l0.44-0.01 c0.12-0.01,0.56-0.2,0.53-0.3c-0.13-0.04-0.66-0.01-0.83,0.14c-0.02-0.05,0.18-0.17,0.44-0.19c-0.14-0.08-0.37,0.11-0.61,0.07 c0.22-0.1,0.53-0.31,0.85-0.47l0.6-0.05l-0.01-0.07c0.48-0.03,0.35-0.14,0.85-0.21c0.07-0.07-0.12-0.08-0.26-0.09 c-0.74,0.34-1.12,0.13-1.82,0.36c-0.25-0.13,1.7-0.58,0.52-0.47c-0.14,0.06-0.52,0.12-0.56,0.16c0.03,0,0.06,0.01,0.05,0.04 c-0.05-0.01-0.06-0.02-0.05-0.04c-0.16-0.02-0.65,0.12-0.44-0.05c0.32,0.02,0.69-0.31,1.16-0.28c-0.24,0.06-0.15,0.13-0.08,0.13 c0.26-0.12,0.72-0.19,0.69-0.31c-0.09-0.05-0.14-0.15-0.5-0.03c-0.41,0.12,0.08,0.1-0.35,0.17c-0.19-0.1,0.43-0.3-0.32-0.15 c0.09,0.07-0.33,0.21-0.61,0.29l-0.2-0.05l0.28-0.06c0.14-0.22-0.51,0.09-0.48-0.08l0.51-0.23c0.47-0.1-0.13,0.29,0.61,0.05 c0-0.11-0.39-0.04-0.23-0.19l0.17,0.03c0.01-0.04,0.99-0.37,0.37-0.35c-0.25-0.01-0.27,0.06-0.55,0.14 c-0.14-0.14-0.44-0.1-0.51-0.2c0.55-0.14-0.01-0.21,0.59-0.26c-0.3,0.15-0.2,0.38,0.34,0.29c0.63-0.25-0.05,0.16,0.62,0 c-0.03-0.14,0.61-0.32,1.02-0.47c0.02-0.05-0.17-0.03-0.24-0.04c-0.4,0.1-0.38,0.15-0.78,0.27c0.06-0.19-0.21-0.27-0.61-0.23 c0.18-0.11,0.57-0.22,0.63-0.17c-0.17-0.15-0.18-0.36-0.12-0.57c-0.52,0.27-0.3-0.03-0.55,0.04c0.2-0.08,0.43-0.17,0.65-0.23 c-0.32-0.03,0.36-0.11,0.32-0.23c-0.31-0.03-0.58-0.1-0.73-0.2c0.42-0.33-0.13-0.43-0.19-0.57c0.22-0.17,0.8-0.31,0.87-0.44 c-0.04-0.1-0.58,0.29-0.37,0.05l0.12-0.03c-0.14,0,0.29-0.41-0.53-0.16l0.62-0.18c0.04-0.05-0.11-0.02-0.18-0.02 c0.2-0.07,0.36-0.17,0.51-0.18c0.06-0.04,0.09-0.06,0.11-0.09c-0.01-0.02-0.02-0.05-0.03-0.07c0-0.01-0.01-0.02-0.01-0.02 c-0.09-0.03-0.25-0.03-0.28-0.08l-0.33,0.2c-0.35-0.06-0.04-0.31-0.24-0.42l0.35-0.13l-0.25-0.02c0.35-0.11,0.52-0.28,0.22-0.22 l0.25-0.02c0,0,0,0,0,0c-0.19-0.49-0.39-0.97-0.6-1.45c-0.23-0.53-0.47-1.06-0.72-1.58c-0.27-0.56-0.56-1.1-0.85-1.65 c-0.43-0.21-0.87-0.41-1.32-0.6l-0.21,0.68c-0.21,0.66-0.46,1.32-0.9,1.92c-0.27,0.04-0.45,0.06-0.55,0.1l-0.03,0.09l-0.07,0.2 c0.01,0.05,0.03,0.1,0.05,0.17c-0.04-0.02-0.07-0.04-0.09-0.05l-0.01,0.02c0.28,0.15-0.11,0.23,0.33,0.41 c-0.27,0.46-0.29,0.97-0.46,1.49c-0.03-0.1-0.44-0.29-0.44-0.18l0.3,0.22l-0.15-0.03c0.05,0.09,0.29,0.25,0.48,0.24 c0,1.44-1.48,2.35-1.79,3.65C118.01,94.92,118.06,95.42,118.06,95.78z M117.22,102.24l0.13-0.48l0.02,0L117.22,102.24z M125.32,102.27l-0.05,0.24l-0.04-0.13L125.32,102.27z M124.41,97.37c-0.01,0.02-0.05,0.04,0.02,0.05 c-0.1,0.06-0.28,0.07-0.31,0.04L124.41,97.37z M123.92,96.87c0.03,0.02,0.25,0.04-0.01,0.13 C124.09,96.93,123.56,96.94,123.92,96.87z M124.21,95.44c0.02,0.04-0.07,0.09-0.18,0.14C124.07,95.54,123.89,95.52,124.21,95.44z M123.93,94.6l0.52,0.08C124.21,94.75,123.99,94.67,123.93,94.6z M124.14,94.05c0.03,0.02,0.15-0.02,0.26-0.04 c0.08-0.02-0.09,0.07-0.13,0.09C124.24,94.07,124.02,94.12,124.14,94.05z M124.02,94.24c-0.07,0.01-0.13,0.02-0.18,0 C124.01,94.2,124.04,94.21,124.02,94.24c0.11-0.01,0.24-0.05,0.38-0.1c-0.03,0.01-0.05,0.02-0.08,0.03 c-0.11,0.14-0.54,0.36-0.84,0.41c0.02-0.07,0.28-0.09,0.41-0.16C123.63,94.45,123.98,94.29,124.02,94.24z M123.67,95.56 c-0.18,0.11-0.29,0.13-0.31,0.06L123.67,95.56z M120.32,101.04c0.07-0.01-0.1,0.29-0.01,0.27 C120.21,101.44,120.32,101.08,120.32,101.04z M113.97,87.28c0.01-0.03,0.02-0.06,0.03-0.08 C113.97,87.2,113.97,87.23,113.97,87.28z M108.53,90.43c-0.12-0.13-0.14,0.01-0.15,0.08c0.17,0.2,0.31,0.23,0.41,0.25 c0.07,0.17-0.01,0.18,0.07,0.38c-0.23-0.34-0.29-0.15-0.38-0.15c-0.12-0.03,0.15,0.35,0.12,0.35c-0.13-0.17-0.12,0.05-0.25-0.22 c-0.02-0.07,0.17,0.12,0.09-0.05c-0.14-0.09-0.35-0.39-0.28-0.11c0.06,0.21,0.51,0.63,0.23,0.52c-0.03-0.11-0.12-0.24-0.19-0.38 l-0.24-0.07l0.22,0.3c-0.07-0.06-0.08-0.1-0.12-0.13c0.21,0.34-0.1,0.24,0.15,0.61c-0.03,0.08-0.28-0.1-0.36-0.09l-0.01-0.03 c-0.2-0.12-0.2,0.07-0.1,0.31l-0.05-0.07c-0.05,0.01-0.1,0.12-0.01,0.33c-0.27-0.14-0.92-1.07-0.72-0.62 c-0.09,0.09,0.29,0.65,0.47,0.81c-0.33-0.06-0.12,0.57-0.65,0.25c0.07,0.13,0.15,0.19,0.16,0.3c-0.34,0.09-0.22,0.76-0.9,0.37 c-0.03-0.18-0.24-0.28-0.39-0.44c0.16,0.3-0.3-0.2,0.06,0.25c0.23,0.25,0.33,0.37,0.49,0.42c-0.02,0.26-0.24,0.44-0.53,0.27 c0.14,0.08,0.18,0.18,0.22,0.28c-0.35-0.4-0.52-0.38-0.46-0.16l0.05,0.06c0.05-0.05,0.09-0.05,0.09,0.06 c-0.01,0.01-0.01,0.02-0.02,0.03l0.09,0.11l-0.11-0.08c-0.02,0.02-0.03,0.04-0.04,0.06c0.11,0.15,0.22,0.3,0.03,0.2l-0.1-0.09 c-0.02,0.04-0.04,0.09-0.05,0.14c0.08,0.21,0.12,0.39-0.07,0.31l-0.05-0.03c-0.02,0.04-0.03,0.09-0.06,0.13c0,0,0,0,0,0 c0,0,0,0,0,0c-0.05,0.09-0.12,0.18-0.21,0.26c0.12-0.21,0-0.21-0.06-0.16c-0.08,0.28-0.36,0.66-0.22,0.72 c0.11-0.02,0.23,0.02,0.39-0.33c0.19-0.38-0.14-0.02,0.11-0.38c0.22-0.05-0.04,0.54,0.37-0.1c-0.13,0,0.05-0.4,0.18-0.66 l0.19-0.1l-0.15,0.24c0.09,0.28,0.29-0.43,0.43-0.27l-0.17,0.54c-0.26,0.41-0.16-0.32-0.49,0.39c0.1,0.09,0.32-0.24,0.34-0.01 l-0.15,0.1c0.03,0.04-0.39,0.99,0.05,0.54c0.19-0.17,0.15-0.24,0.28-0.5c0.23,0.02,0.42-0.22,0.56-0.2 c-0.28,0.5,0.19,0.16-0.2,0.61c0.09-0.33-0.2-0.44-0.51,0.01c-0.23,0.64-0.11-0.16-0.45,0.43c0.13,0.09-0.11,0.58-0.28,0.97 c0.03,0.01,0.07,0.02,0.1,0.03c0.02-0.02,0.04-0.04,0.06-0.05c0.2-0.36,0.14-0.38,0.33-0.76c0.12,0.19,0.39,0.07,0.66-0.24 c-0.03,0.21-0.23,0.57-0.32,0.57c0.26,0,0.45,0.16,0.59,0.37c0.14-0.57,0.25-0.19,0.37-0.41c-0.08,0.2-0.17,0.43-0.28,0.63 c0.26-0.2-0.17,0.33-0.03,0.4c0.26-0.19,0.52-0.32,0.72-0.34c-0.02,0.53,0.49,0.21,0.67,0.26c-0.01,0.19-0.15,0.47-0.22,0.68 c0.03,0.01,0.06,0.02,0.08,0.03c0.04-0.14,0.08-0.26,0.11-0.09l-0.07,0.1c0.03-0.03,0.06,0,0.09,0.04 c0.06,0.02,0.12,0.05,0.18,0.07c0.07-0.03,0.15-0.13,0.28-0.37l-0.22,0.39c0.15,0.06,0.3,0.12,0.45,0.19 c0.02,0,0.03,0.01,0.04,0.02c0.4,0.18,0.79,0.4,1.14,0.71c0.03,0.45,0.05,0.62,0.16,0.67c0,0,0.01,0,0.01,0.01 c0.07,0.02,0.18-0.01,0.33-0.05c-0.04,0.07-0.06,0.1-0.08,0.15l0,0c0,0,0.01,0,0.01,0c0.19-0.38,0.23,0.08,0.45-0.36 c0.44,0.29,0.93,0.33,1.42,0.53c-0.1,0.02-0.3,0.43-0.19,0.43l0.22-0.29l-0.04,0.15c0.04-0.02,0.1-0.09,0.15-0.17l0-0.01 c0.03-0.1,0.06-0.19,0.1-0.28c0,0,0,0,0-0.01l0,0c0.09-0.25,0.19-0.49,0.31-0.72c-0.08-0.17-0.09-0.18,0,0 c0.11-0.21,0.23-0.41,0.39-0.61c0.27-0.02,0.44-0.03,0.53-0.06l0.08-0.24c-0.01-0.04-0.03-0.09-0.06-0.15l0.1,0.04l0,0 c-0.29-0.15,0.09-0.19-0.34-0.37c0.24-0.39,0.24-0.83,0.38-1.27c0.03,0.09,0.44,0.27,0.44,0.18l-0.3-0.2l0.15,0.04 c-0.06-0.08-0.29-0.23-0.48-0.23c-0.07-1.25,1.35-1.96,1.59-3.08c0.31-0.18,0.23-0.61,0.22-0.92c0.16-0.1,0.32-0.19,0.47-0.29 l0.2-0.58l0.19-0.54c-0.08-0.45,0.07-0.85,0.04-1.28c0.09,0.04,0.22,0.1,0.35,0.15l0.02-0.05c-0.23-0.15-0.28-0.3-0.31-0.44 c0.48,0.1-0.34-0.39-0.03-0.46l0.1,0.05c-0.44-0.29,0.34-0.08-0.2-0.38l0.39,0.05c-0.63-0.28,0.4-0.06,0.1-0.27l-0.13-0.04 c-0.12-0.15,0.22-0.09,0.14-0.21l0.08,0.02c-0.1-0.27,0.3-0.26-0.2-0.43c0.42,0.07,0.14,0.25,0.7,0.35l0-0.01l0.02-0.07 c-0.23-0.82,0.09-1.46,0.31-2.12c0.2-0.01,0.29-0.02,0.43,0l0.04-0.1c-0.02-0.1-0.03-0.22-0.2-0.32c0,0.03,0.25,0.04,0.3,0.02 l0.01-0.03l0.02-0.06c-0.1-0.1-0.46-0.26-0.25-0.31c0.08,0.07,0.19,0.12,0.3,0.17l0.02-0.07c-0.16-0.17-0.11-0.29-0.18-0.44 c0.08,0.05,0.12,0.1,0.28,0.15c-0.25-0.19-0.11-0.24-0.03-0.31c-0.2-0.04-0.45-0.09-0.47,0.12c-0.01-0.12-0.08-0.27-0.15-0.42 c-0.16-0.06-0.33-0.12-0.49-0.17c-0.03,0.01-0.06,0.02-0.08,0.03c0.04,0.34,0.07,0.69-0.05,0.79c0-0.23-0.23-0.51-0.27-0.67 c0,0-0.01,0-0.01,0l0.17,1.14c-0.06,0.06-0.21-0.45-0.24-0.26c0.07,0.15,0.07,0.26,0.09,0.4c-0.05-0.06-0.21,0.26-0.49-0.29 c-0.13-0.21,0.06-0.16-0.1-0.33c-0.12,0.06-0.04,0.25-0.16,0.31l-0.04-0.07c-0.12-0.05-0.14,0.34,0.09,0.61 c0.06-0.01-0.17-0.33-0.02-0.2c0.09,0.35-0.01,0.5-0.13,0.56c0-0.11-0.07-0.25-0.13-0.42c0.03,0.49-0.07,0.7-0.16,0.95 c0.02,0.08,0.03,0.12-0.01,0.03c0-0.01,0.01-0.02,0.01-0.03c-0.03-0.12-0.1-0.32-0.09-0.36c-0.38-0.22-0.23,0.71-0.66,0.3 c0.01-0.06,0.2,0.36,0.16,0.29c-0.12,0.03-0.31-0.35-0.31-0.18c-0.12-0.22-0.05,0.12-0.09,0.23c0.03,0.13-0.02,0.02-0.03-0.07 c-0.05,0.27-0.26,0.7-0.62,0.52c0.08,0.14,0.14,0.61,0.08,0.62l-0.16-0.35c-0.05-0.06-0.08-0.06-0.11-0.05 c0,0.02-0.01,0.02-0.02,0.01c-0.03,0.01-0.06,0.02-0.1,0c0,0-0.01,0-0.01,0.01c-0.02,0.14-0.03,0.31-0.22,0.12 c0.06,0.04-0.17-0.51-0.24-0.44c-0.12,0.14,0.04,0.18-0.02,0.36l0,0.18c0.18,0.33-0.16,0.03,0.1,0.36 c-0.17-0.26-0.13,0.28-0.41-0.26l-0.22-0.44c-0.05,0.07,0.14,0.51,0.2,0.72l-0.13-0.18c0.36,0.65-0.19,0.03,0.02,0.57 c-0.27-0.15-0.36,0.17-0.66-0.2c0.01,0.25,0.05,0.53-0.15,0.46c-0.01-0.07,0.01-0.11-0.07-0.25c-0.19-0.15-0.11,0.03-0.11,0.17 c-0.04-0.11-0.38-0.29-0.59-0.45c0.02,0.26,0.26,0.58,0.38,0.79c-0.48-0.56-0.03,0.59-0.49,0.1c-0.02-0.11-0.05-0.4-0.23-0.5 c-0.49-0.56,0.11,0.58-0.23,0.39l0.37,0.49c-0.27-0.27-0.02,0.44-0.34-0.09c0.07,0.22-0.28-0.05,0.06,0.43 c-0.52-0.26-0.4,0.64-1.16-0.14c0.02,0.11-0.12,0.08,0.07,0.32c0.25,0.23-0.06-0.25,0.09-0.08c-0.02,0.04,0.07,0.18,0.11,0.24 c-0.15-0.06-0.23-0.06-0.45-0.51c-0.38-0.19,0.41,0.95,0.07,0.9c-0.13-0.21-0.2-0.27-0.24-0.2l0.13,0.42 c-0.19,0.01-0.41-0.4-0.65-0.74c-0.03,0.11-0.13,0.15,0.02,0.43l-0.4-0.36c0.29,0.26,0.09,0.24,0.11,0.35L108.53,90.43z M106,95.25c-0.06-0.02-0.02-0.16,0.02-0.3C105.93,95.14,106.2,94.9,106,95.25z M106.29,94.78c0.04-0.21,0.1-0.31,0.17-0.26 C106.42,94.64,106.36,94.68,106.29,94.78z M106.49,96.02c0.12-0.21,0.35-0.31,0.45-0.29L106.49,96.02z M107.12,96.53 c-0.04,0.07,0.01-0.12,0.02-0.17c0.04,0,0.17-0.19,0.14-0.05C107.24,96.32,107.19,96.44,107.12,96.53z M107.21,96.08 c-0.07,0.09-0.13,0.2-0.19,0.34c0.01-0.03,0.02-0.05,0.03-0.08c-0.04-0.19,0.08-0.66,0.27-0.9c0.04,0.07-0.13,0.26-0.16,0.41 C107.31,95.64,107.19,96.01,107.21,96.08c0.04-0.05,0.09-0.11,0.14-0.12C107.25,96.1,107.22,96.12,107.21,96.08z M116.41,86.75 c-0.05,0.05-0.1-0.28-0.17-0.21C116.25,86.36,116.39,86.72,116.41,86.75z M111.03,89.27l0.12,0.06l0,0.15L111.03,89.27z M125.42,91.21c-0.04,0.02-0.08,0.03-0.13,0.05c-0.28,0.15-0.13,0.26,0.21,0.16c0-0.01,0-0.01-0.01-0.02 c-0.01-0.04-0.07-0.03-0.19-0.03c0.07-0.03,0.11-0.04,0.16-0.06C125.45,91.29,125.44,91.25,125.42,91.21z M127.6,115.68 l-1.01-0.49c-0.01-0.08,0.49,0.08,0.35-0.06c-0.16-0.03-0.25-0.09-0.38-0.15c0.08-0.01-0.09-0.33,0.52-0.25 c0.24,0.01,0.1,0.14,0.33,0.1c0.02-0.14-0.18-0.18-0.17-0.32l0.08,0.01c0.11-0.07-0.2-0.31-0.56-0.27 c-0.03,0.06,0.37,0.04,0.17,0.1c-0.34-0.12-0.41-0.29-0.39-0.43c0.09,0.06,0.25,0.08,0.42,0.13c-0.42-0.25-0.56-0.46-0.72-0.68 c-0.08-0.03-0.12-0.04-0.02-0.03c0.01,0.01,0.01,0.02,0.02,0.03c0.12,0.04,0.32,0.1,0.35,0.12c0.38-0.21-0.51-0.6,0.09-0.74 c0.05,0.04-0.41-0.04-0.33-0.03c0.05-0.12,0.47-0.06,0.32-0.16c0.25,0.02-0.07-0.11-0.13-0.21c-0.13-0.05,0-0.03,0.08,0.01 c-0.19-0.19-0.42-0.62-0.06-0.82c-0.16-0.01-0.58-0.23-0.55-0.28l0.38,0.06c0.08-0.01,0.1-0.04,0.11-0.07 c-0.02-0.01-0.02-0.02,0.01-0.02c0.01-0.03,0.02-0.07,0.06-0.09c0-0.01,0-0.01,0-0.01c-0.1-0.1-0.24-0.2,0.03-0.26 c-0.07,0.03,0.52,0.15,0.5,0.05c-0.05-0.18-0.18-0.07-0.29-0.22l-0.15-0.1c-0.37-0.04,0.06-0.15-0.36-0.12 c0.31,0-0.18-0.27,0.44-0.2l0.48,0.06c-0.03-0.08-0.51-0.17-0.72-0.24l0.22-0.01c-0.74-0.06,0.07-0.18-0.5-0.31 c0.27-0.14,0.04-0.4,0.51-0.45c-0.11-0.07-0.23-0.13-0.3-0.2c-0.08,0.18-0.17,0.32-0.26,0.21c0.05-0.24,0.04-0.34-0.04-0.31 l-0.22,0.39c-0.16-0.13-0.01-0.57,0.05-0.98c-0.11,0.05-0.22,0.01-0.31,0.31l-0.03-0.54c0.02,0.39-0.12,0.24-0.18,0.33l0.06-0.09 c0.01-0.18-0.11-0.09-0.18-0.05c-0.03,0.26,0.06,0.38,0.11,0.47c-0.08,0.17-0.15,0.12-0.25,0.32c0.09-0.4-0.11-0.31-0.17-0.37 c-0.07-0.1-0.16,0.34-0.18,0.33c0.03-0.21-0.13-0.06-0.02-0.34c0.04-0.06,0.03,0.22,0.11,0.04c-0.03-0.17,0.04-0.53-0.12-0.28 c-0.12,0.18-0.12,0.8-0.24,0.52c0.06-0.09,0.1-0.25,0.16-0.39l-0.12-0.24l-0.07,0.37c0-0.1,0.02-0.13,0.02-0.18 c-0.12,0.38-0.26,0.08-0.38,0.5c-0.09,0.02-0.12-0.28-0.19-0.34l0.02-0.03c-0.05-0.23-0.2-0.11-0.33,0.12l0.02-0.08 c-0.05-0.04-0.18,0-0.28,0.2c-0.07-0.3,0.23-1.39-0.01-0.95c-0.13-0.01-0.34,0.63-0.33,0.88c-0.18-0.29-0.57,0.26-0.67-0.35 c-0.06,0.14-0.06,0.24-0.15,0.31c-0.31-0.21-0.82,0.3-0.94-0.46c0.13-0.14,0.09-0.36,0.13-0.57c-0.15,0.31-0.02-0.36-0.18,0.2 c-0.07,0.33-0.11,0.49-0.04,0.64c-0.25,0.15-0.55,0.06-0.59-0.28c0.02,0.17-0.05,0.26-0.11,0.34c0.13-0.52,0.01-0.64-0.15-0.48 l-0.09,0.32l0-0.35c-0.07,0.09-0.21,0.66-0.24,0.32l0.05-0.35c-0.18,0.23-0.45,0.63-0.51,0.32l0.01-0.49 c-0.07,0.04-0.23,0.29-0.16,0.45c-0.15-0.34-0.28-0.41-0.24-0.83c-0.61,0.88-1.17,0.77-1.59,0.58l0.08-0.23 c-0.06-0.25-0.17,0.4-0.21,0.21c0.1-0.22,0.04-0.52,0.21-0.77c-0.1-0.29-0.33,0.35-0.46,0.43c-0.1,0.31,0.14-0.17,0.01,0.21 c-0.05,0.11-0.16-0.31-0.32,0.16c0.01-0.1,0.04-0.24,0.09-0.38l-0.27-0.13c0.19,0,0.28,0.05,0.27,0.12 c0.04-0.12,0.09-0.24,0.12-0.32l-0.17,0.2c0-0.09,0.04-0.16,0.06-0.24l-0.2-0.03c-0.02-0.01-0.02-0.01-0.04-0.02 c-0.05,0.07-0.09,0.11-0.14,0.09c0.01-0.09,0.03-0.13,0.06-0.15c-0.1-0.11,0.13-0.16-0.06-0.26c-0.03,0.02-0.06,0.02-0.07-0.01 c0.02,0.09-0.01,0.23-0.06,0.36c0.01,0,0.01,0,0.02,0c-0.01,0-0.01,0-0.02,0c-0.04,0.12-0.1,0.22-0.15,0.29 c0.08,0.14,0.21,0.26,0.21,0.37c-0.47-0.19-0.21,0.13-0.51-0.04c-0.16,0.32-0.09-0.3-0.29,0.11c0.03-0.21,0.13-0.42,0.22-0.62 c-0.04-0.03-0.07-0.06-0.12-0.09c-0.09,0.15-0.19,0.33-0.23,0.64c-0.03-0.13,0.04-0.43,0.16-0.66c-0.04-0.01-0.07-0.02-0.1-0.03 c-0.13,0.14-0.28,0.4-0.14-0.16l-0.16,0.41c0.01-0.15,0-0.26,0.01-0.5c-0.04-0.01-0.12,0.07-0.2,0.13c0.01,0,0.01,0,0.01,0 c-0.17,0.15-0.02,0.41,0.32,0.64c-0.18,0-0.45-0.11-0.56-0.19c0,0.02,0,0.03-0.01,0.04c0-0.02,0-0.03,0-0.05 c-0.02-0.02-0.04-0.03-0.04-0.05c0.04,0.26-0.1,0.49-0.29,0.66c0.59,0.07,0.22,0.23,0.46,0.33c-0.21-0.06-0.44-0.12-0.65-0.21 c0.23,0.24-0.35-0.13-0.4,0.02c0.22,0.24,0.38,0.5,0.43,0.7c-0.54,0.04-0.19,0.52-0.23,0.71c-0.28,0.01-0.82-0.25-0.95-0.18 c-0.03,0.13,0.64,0.12,0.32,0.21l-0.1-0.06c0.11,0.1-0.5,0.2,0.29,0.53l-0.59-0.27c-0.07,0.02,0.06,0.09,0.12,0.15 c-0.2-0.07-0.39-0.09-0.5-0.19c-0.06,0-0.11,0-0.14,0l-0.04,0.11l-0.01,0.02c0.05,0.08,0.15,0.19,0.14,0.25l0.39,0.05 c0.21,0.31-0.2,0.32-0.14,0.57l-0.35-0.13l0.17,0.19c-0.33-0.15-0.59-0.11-0.32,0.05l-0.17-0.14l-1.35,3.9l0.12,0.04 c0.24-0.12,0.16-0.08,0,0l1.84,0.64l3.59,1.24c0.01,0,0.01,0,0.02,0c0.07-0.02,0.14-0.05,0.22-0.11 c0.03-0.01,0.01,0.06-0.02,0.15c0.25,0.05,0.5,0.1,0.75,0.15c0.05,0.01,0.1,0.01,0.15,0.03c1.11,0.18,2.23,0.27,3.29,0.56 c0.82,0.39,1.7,0.58,2.55,0.89c0.02-0.03,0.04-0.06,0.07-0.11l-0.01,0.13c0.3,0.11,0.59,0.24,0.88,0.39 c0.02-0.04,0.03-0.08,0.05-0.14c-0.01,0.06-0.02,0.11-0.04,0.15c0.19,0.1,0.37,0.21,0.55,0.34c0.01,0.07,0.02,0.12,0.03,0.17 c0.33,0.03,0.63,0.13,0.93,0.24c0.01-0.01,0.01-0.02,0.02-0.03l0.37,0.17l0.08,0.03c0.03,0,0.05,0,0.07-0.01 c-0.03-0.06-0.06-0.12-0.08-0.17c-0.14-0.09-0.3-0.18-0.15-0.22c0.02,0.02,0.05,0.03,0.07,0.04c-0.13-0.28-0.21-0.45-0.24-0.52 c0.03,0.07,0.12,0.26,0.24,0.52c0.07,0.05,0.16,0.09,0.25,0.12c0.01-0.02,0.01-0.04,0.02-0.07c-0.19-0.17-0.14-0.3-0.21-0.45 c0.08,0.05,0.12,0.1,0.29,0.14c-0.41-0.29,0.18-0.26-0.07-0.48l0.21,0.1c0-0.01,0.01-0.02,0.01-0.03 c0.01-0.03,0.02-0.06,0.03-0.08c-0.18-0.07-0.45-0.14-0.3-0.22l0.32,0.13c-0.49-0.33-0.23-0.56-0.37-0.79 c0.04,0.02,0.12,0.04,0.12,0.04c-0.01-0.21,0.21-0.37,0.03-0.64c0.1-0.03,0.39,0.07,0.56,0.07c0-0.02,0.01-0.03,0.01-0.05 c0.01-0.02,0.01-0.05,0.02-0.07c-0.46-0.14-0.13-0.39-0.8-0.42c0.13-0.15,0.42-0.38,0.23-0.54c0.19,0.11,0.62,0.09,0.73,0.2 c0.04-0.17,0.08-0.34,0.11-0.51c-0.29-0.16-0.58-0.32-0.6-0.47c0.18,0.12,0.51,0.1,0.68,0.13 C127.6,115.69,127.6,115.69,127.6,115.68z M115.88,108.6l-0.35-0.43C115.76,108.26,115.89,108.49,115.88,108.6z M115.34,109.03 c-0.01-0.05-0.13-0.08-0.23-0.14c-0.08-0.03,0.12-0.01,0.17,0C115.28,108.94,115.49,109.05,115.34,109.03z M115.79,108.83 c0.22,0.15-0.16,0.07-0.23,0.1c0.06,0.04,0.11,0.08,0.14,0.13c-0.15-0.08-0.17-0.12-0.14-0.13c-0.09-0.06-0.21-0.11-0.36-0.16 c0.03,0.01,0.05,0.01,0.08,0.02c0.18-0.07,0.67-0.01,0.93,0.15C116.15,109,115.94,108.84,115.79,108.83z M125.81,113.8 c-0.01-0.08,0.29,0.07,0.28-0.03C126.22,113.88,125.85,113.8,125.81,113.8z M126.64,117.18l0.48,0.12l-0.48-0.1L126.64,117.18z M126.52,119.94L126.52,119.94c0-0.01,0.01-0.02,0.01-0.03c0-0.01,0.01-0.03,0.01-0.04c-0.03-0.03-0.07-0.06-0.13-0.09 c0.03,0.06,0.05,0.11,0.08,0.17C126.51,119.95,126.52,119.95,126.52,119.94z M125.78,92.12c-0.01,0.02-0.02,0.04-0.06,0.07 c0.02-0.01,0.05-0.01,0.08-0.02c0-0.01-0.01-0.02-0.01-0.04C125.78,92.13,125.78,92.13,125.78,92.12z M126.72,111.16 c-0.1-0.04-0.14-0.03-0.14,0c0,0,0.01,0.01,0.01,0.01C126.62,111.17,126.65,111.16,126.72,111.16z M126.63,111.27 c0.01,0,0.01,0,0.03,0c0-0.03-0.03-0.07-0.06-0.1c0,0-0.01,0-0.01,0C126.59,111.2,126.6,111.24,126.63,111.27z M96.87,81.93 c-0.03,0.12-0.15,0.24,0,0.3c0.66-0.44,1.42-0.81,2.23-1.14c0,0,0,0,0,0c-0.63,0.18-1.25,0.38-1.86,0.6 c0.02,0.04,0.04,0.09,0.07,0.13c-0.23,0.12-0.41,0.11-0.58,0.05l0,0c-0.44,0.16-0.87,0.34-1.3,0.51 c0.02,0.04,0.05,0.07,0.11,0.06c0.06-0.06,0.14-0.12,0.26-0.15c-0.13,0.1-0.2,0.14-0.26,0.15c-0.07,0.07-0.11,0.14-0.14,0.22 C95.91,82.51,96.44,82.32,96.87,81.93z M92.82,100.17c0.34-0.98-0.19-0.89-0.34-1.11c0.76-0.3,1.05-1.54,1.6-2.43 c-0.58-0.43-1.54-0.68-1.16-1.02c-0.53-0.11-1.31-1.18-1.53-0.6c-1.29-1.24-3.26-2.54-4.42-3.82c-0.81,0.75-1.58,1.69-2.22,2.45 c-2.81,2.24-5.14,4.91-6.56,8.2c0.14,0.06,0.27,0.11,0.36,0.17c0.04,0.01,0.06,0.02,0.1,0.03c0.7,0.13,1.39,0.22,1.95,0.68 c-0.24-0.15-0.94,0.24-0.17,0.47c1.37,0.4,0.44-0.04,1.58,0.22l0.74,0.09c0.17-0.34,1.19,0.47,0.82-0.1 c0.06,0.35,2.02,0.5,1.68,1.04l-0.35,0.4c0.59,0.17,1.12-0.15,1.65-0.2c0.06,0.07,0.18,0.21,0.13,0.28 c0.34-0.67,1.37,0.54,2.25,0.24c0.18,0.1,0.37,0.2,0.58,0.29c0.17-0.98,0.33-1.92,1-2.84c-0.05,0.24-0.17,0.54-0.06,0.66 c0.53-0.56,0.44-0.8,0.64-1.46C91.11,102,92.14,100.71,92.82,100.17z M113.77,87.44c0.02,0.11,0.05,0.13,0.08,0.11 c0-0.01,0-0.01,0-0.02C113.83,87.52,113.81,87.49,113.77,87.44z M78.7,102.21c0.26-0.02,0.19-0.08-0.05-0.17 c-0.02,0-0.05-0.01-0.07-0.01C78.65,102.09,78.7,102.15,78.7,102.21z M75.71,95.73c-0.17,0.14-0.26,0.34-0.32,0.56l0,0 C75.5,96.1,75.6,95.92,75.71,95.73z M73.66,108.78c0.02,0.02,0.03,0.04,0.05,0.05c0.06-0.21,0.06-0.3,0.03-0.41 c-0.01,0.05-0.02,0.09-0.03,0.14C73.69,108.64,73.67,108.71,73.66,108.78z M78.16,101.91c0,0.01-0.01,0.02-0.01,0.02 c0.14,0.03,0.28,0.08,0.42,0.1c-0.01-0.01-0.02-0.01-0.02-0.02C78.44,101.98,78.31,101.95,78.16,101.91z M94.56,82.75 c-0.33,0.15-0.66,0.3-0.99,0.45c-0.05,0.02-0.1,0.04-0.15,0.07c0.07,0.05,0.14,0.11,0.19,0.18c0.29-0.28,0.68-0.45,1.11-0.58 C94.67,82.82,94.62,82.78,94.56,82.75z M73.23,111.37c0.1-0.21,0.11-0.44,0.1-0.68c0,0,0,0,0,0 C73.29,110.92,73.25,111.14,73.23,111.37L73.23,111.37z M93.07,84.63l0.14-0.57l-0.01,0.01l-0.01-0.31 c-0.76,0.25-0.41,0.46-0.57,0.73C92.74,84.56,92.87,84.63,93.07,84.63z M92.57,87.95l-0.32-0.14c-0.01,0.22,0.69,0.68,1.04,0.91 c0.08-0.27-0.49-0.9-0.79-1.25c0.39,0.09,0.79,0.49,1.29,0.64c-0.4,0.25,0.75,0.91,1.19,1.27c0.48,0.44,0.81,0.12,0.96,0.24 c-0.11,0.18,0.84,0.63,0.26,0.59c-0.22-0.07-0.29-0.46-0.7-0.51c0.25,0.37,0,0.64,0.89,0.94c0.66,0.22,0.32-0.76,1.21,0.17 c-0.33-0.11-0.47-0.01-0.77-0.03l0.85,0.86l0.25-0.28c0.08,0.17-0.03,0.13,0,0.22c0.07-0.02,0.15-0.01,0.23,0.01 c0.18-0.12,0.35-0.25,0.5-0.38l-0.06,0.11c0.65-0.41,1.24-1.2,1.54-1.8l0.03,0.08c0.32-0.26,0.98-0.95,1.21-1.47 c0.95-0.47,1.18,0.84,1.74-0.24c0.78-0.66,0.83-1.56,0.35-1.48c1.62-0.95,3.02-2.71,4.83-3.11c0.09-0.15,0.06-0.22,0.1-0.31 c-0.91,0.04-1.82,0.12-2.77,0.24c0.37-0.1,0.53-0.57,0.07-0.48l-0.44,0.4l-0.1-0.14c-0.3,0.12-0.6,0.42-0.26,0.56 c-4.35,0.93-8.86,1.95-12.81,4.07C92.27,87.75,92.45,87.9,92.57,87.95z M81.38,93.27c0.16-0.48,0.4-0.96,0.7-1.43 c-0.46,0.52-0.91,1.06-1.34,1.6l0,0C80.92,93.54,81.14,93.75,81.38,93.27z M110.84,119.8c0.01-0.01,0.01-0.01,0.02-0.03 c-0.01-0.17-0.06-0.13-0.13-0.06C110.76,119.74,110.79,119.77,110.84,119.8z M142.84,111.23c-0.02-0.07-0.05-0.15-0.08-0.22 C142.71,111.1,142.73,111.17,142.84,111.23z M132.94,108.46c0.02,0.05,0.05,0.09,0.08,0.12c0.15-0.14,0.28-0.25,0.39-0.35 c0-0.03,0-0.06,0-0.08c-0.04,0-0.07-0.01-0.11-0.01C133.19,108.25,133.07,108.35,132.94,108.46z M131.19,110.03 c0,0.04-0.01,0.07-0.01,0.11l0.08,0.02c0.24-0.22,0.48-0.43,0.68-0.61l-0.21,0C131.5,109.76,131.31,109.92,131.19,110.03z M119.82,52.11c5.66,0.79,7.41-2.33,6.75-7.87c-4.2-4.11-9.6-1.11-9,5.62C118.83,50.1,119.32,51.11,119.82,52.11z M90.47,122.34 c0.04,0.22,0.14,0.04,0.23-0.04c-0.06-0.07-0.12-0.14-0.18-0.21c-0.02,0.02-0.03,0.07-0.04,0.12 C90.47,122.26,90.47,122.3,90.47,122.34z M90.89,84.63C90.89,84.63,90.88,84.63,90.89,84.63c-0.26,0.15-0.51,0.31-0.76,0.47 c0.05,0.3-0.33,0.37-0.5,0.59c0.16,0.11,0.32,0.23,0.47,0.35c0.26-0.36,0.51-0.75,0.89-0.88c0.07,0.11-0.1,0.27,0.13,0.34 c-0.03-0.3,0.48-0.56,0.83-0.82l-0.43-0.16c-0.01-0.4,0.79-0.5,0.97-0.78l0,0C91.95,84.02,91.42,84.32,90.89,84.63z M90.34,85.56 c-0.09-0.09-0.01-0.23,0-0.38C90.72,85.2,90.7,85.33,90.34,85.56z M133.74,110.33c-0.01,0-0.03,0.01-0.04,0.02 c0.01,0.01,0.02,0.03,0.04,0.04C133.73,110.37,133.74,110.35,133.74,110.33z M91.3,127.54c0.02-0.02,0.05-0.05,0.07-0.07 C91.23,127.49,91.17,127.51,91.3,127.54z M105.26,94.2c0.01,0.03,0.02,0.06,0.04,0.09c0.01-0.01,0.02-0.02,0.03-0.03L105.26,94.2 z M140.68,97.93L140.68,97.93c-0.4-0.7-0.82-1.39-1.27-2.07c-0.06,0-0.14-0.05-0.24-0.18l-0.01,0.66 c-0.26,0.07-0.24-0.51-0.41-0.19c0.21,0.29,1.04,1.01,1.09,1.35C140.09,97.66,140.38,97.79,140.68,97.93z M136.82,92.42 c-0.06-0.07-0.13-0.15-0.19-0.22c-0.02,0.13,0.04,0.29,0.31,0.56c0.04-0.03,0.08-0.05,0.12-0.06 C136.98,92.6,136.9,92.51,136.82,92.42z M105.37,94.05c0.01,0.02,0.03,0.05,0.05,0.08c0.01-0.01,0.02-0.02,0.02-0.03 L105.37,94.05z M55.71,125.22c-2.62,0-5.25,0-7.87,0C48.38,128.8,56,129.69,55.71,125.22z M68.4,126.45 c-0.11-0.42-0.21-0.85-0.31-1.27c-0.24-1.81-0.75-4.32-1.06-6.29c0.34-5.93,1.62-10.92,3-16.58c0,0,1.12,1.2,0.8,3.49 c0.4,2.73-0.96,5.86-0.71,8.79c0.02-0.55,0.05-1.11,0.1-1.66c0.02-0.2,0.04-0.4,0.05-0.6c0.04-0.39,0.08-0.79,0.13-1.18 c0.02-0.2,0.05-0.39,0.08-0.59c0.07-0.52,0.15-1.03,0.25-1.55c0.01-0.06,0.02-0.12,0.03-0.18c0.11-0.57,0.23-1.14,0.36-1.71 c0.04-0.18,0.09-0.35,0.13-0.53c0.1-0.42,0.22-0.85,0.34-1.27c0.05-0.17,0.1-0.34,0.15-0.52c0-0.01,0-0.01,0.01-0.02 c-0.39-0.76-0.66-1.29-0.2-0.39l0,0l0-0.01l0.03-0.13l0.07-0.26l0.15-0.51l0.35-1.01l0.19-0.48l0.1-0.23l0.05-0.11l0.01-0.03 l0.01-0.01l0,0l0,0c-0.92,0.43-0.37,0.17,0.41-0.19c0.14-0.34,0.28-0.68,0.42-1.02l-0.13-1.44c0.37-0.3,0.22,0.45,0.51,0.54 c0,0,0,0,0,0c0.11-0.23,0.22-0.46,0.33-0.68c0,0,0,0,0,0c-0.3-0.18-0.09-0.63-0.24-1c-0.05,0.12-0.17,0.24-0.23,0.34 c0,0.05-0.01,0.1,0,0.16c-0.05-0.04-0.03-0.1,0-0.16c0.01-0.41,0.16-0.78,0.43-1.32c-0.03,0.44,0.3,0.06,0.41,0.1 c-0.31-0.29-0.13-0.9,0.36-1.56c0.78-0.23,0.6-1.51,1.27-2.27c0.16,0.6,0.19,1.22,0.02,1.81c0.17-0.12,0.26-0.22,0.33-0.31 c0.17-0.26,0.34-0.51,0.51-0.77c-0.14-0.4-0.37-0.86-0.11-1.58l0.3,0.16c0.29-0.69-0.09-0.98,0.58-1.65 c1.11-1.18,2.21-2.4,3.15-3.2l0.27,0.21c-0.04-1.01,1.41-1.8,1.93-2.59c1.38-0.78,2.46-2.4,3.49-2.34 c2.1-1.78,4.14-3.21,6.85-4.2l-0.25,0.64c0.32-0.53,0.42,0.13,0.85-0.13c-0.68-0.14,0.44-0.74,0.66-1.17 c1.33-0.11,2.76-0.94,3.76-1.64l0.13,0.31c0.96-0.91,2.47-0.63,3.87-0.83c0.18,0.09,0.49,0.39,0.9,0.3 c0.69-0.63,1.1-0.64,2.21-1.11c0.83-0.14,2.21,0.01,3.06,0.2c3.17-0.89,6.39,0.04,9.71,0.24l0.15,0.43c3.34-0.05,6.86,2,9.45,2.9 l-0.54,0.49c0.65,0.58,1.8,0.75,1.84,0.22c0.68,0.55,2.07,0.77,2.21,1.57c0.66,0.59,1.07,0.33,1.74,0.67 c0.36,0.31,0.65,0.57,0.91,0.81c-0.34-0.69-0.6-1.46-0.75-2.34c3.52-4.36,6.18-9.57,7.87-15.75c-4.66,1.29-4.38-2.37-7.87-2.25 c-1.22,6.66-6.24,9.51-13.5,10.12c-4.47-9.44-3.95-17.45-5.62-25.87c-2.19,3.06-0.08,10.42-5.62,10.12 c-1.39,3.64,3.64,0.86,2.25,4.5c-2.73,4.48-4.75,7.36-11.25,5.62c-1.74,1.63-0.99,5.76-1.12,9c-2.35,0.65-3.21,2.79-6.75,2.25 c-0.55-3.55,2.03-3.97,1.12-7.87c-2.25,0-4.5,0-6.75,0c-0.86,4.01,3.48,7.72-1.12,9c-3.25-0.5-2.66-4.84-5.62-5.62 c-0.35,2.71,4.91,5.45,1.12,7.87c-2.5-0.87-4.39-2.36-7.87-2.25c0.3,5.03-4.11,5.33-5.62,5.62c1.26,0.24,1.75,1.25,2.25,2.25 c-1.98,0.65-6.61-1.36-6.75,1.12c2.3,1.26,4.17,3.89,5.27,6.95c1.32,3.66-9.74,1.65-11.18,4.97c1.4,2.33,6.32,12.29,0.28,11.7 C55.33,122.21,66.27,120.93,68.4,126.45z M72.86,101.18c-0.26-0.04-0.65,0.16-0.86,0.01C72.33,101.1,72.71,100.57,72.86,101.18z M71.64,102.24c-0.24,0.89,0.59-0.31-0.05,0.62C71.45,102.68,71.38,102.46,71.64,102.24z M69.79,116.5 c0.14,0.48,0.26,1,0.37,1.55c-0.04-0.7-0.06-1.41-0.06-2.12C69.92,115.95,69.68,115.98,69.79,116.5z M126.69,109.05 c0.01,0,0.01-0.01,0.02-0.01c0-0.03,0.01-0.06,0.02-0.11c-0.04-0.02-0.09-0.04-0.13-0.08c0.03,0.01,0.09-0.01,0.16-0.03 c0.01-0.05,0.02-0.08,0.04-0.14c-0.08-0.21-0.18,0.06-0.29,0.32C126.55,109.03,126.59,109.04,126.69,109.05z M126.44,102.8 c0.03-0.01,0.06-0.01,0.09-0.02l0,0C126.53,102.55,126.48,102.73,126.44,102.8z M39.96,129.72c1.12,0,2.25,0,3.37,0 c-0.05-1.55,0.53-2.47,1.12-3.37c-1.5,0-3,0-4.5,0C39.96,127.47,39.96,128.6,39.96,129.72z M104.96,94.89 c0-0.01,0.01-0.02,0.02-0.03c-0.07-0.01-0.14-0.02-0.2-0.03C104.65,95.14,104.58,95.36,104.96,94.89z M68.08,131.97 c-3.25,0.5-5.13,2.37-5.62,5.62c3.55,2.32,6.15,2.21,10.46,0.71c-1.91-3.39-3.24-7.09-4.23-10.77 C68.86,128.7,68.71,130.14,68.08,131.97z M105.09,94.64l-0.18-0.13c0,0.04,0.05,0.15,0.12,0.24 C105.05,94.71,105.06,94.68,105.09,94.64z M126.37,102.81c0.02,0,0.04,0,0.06-0.01c0-0.01,0-0.01,0-0.03 c0.02-0.01,0.04-0.05,0.05-0.11c-0.05,0.01-0.09,0.01-0.13,0.02C126.36,102.72,126.36,102.76,126.37,102.81z M100.34,98.57 c0.04-0.01,0.08-0.01,0.11-0.02C100.42,98.56,100.38,98.56,100.34,98.57L100.34,98.57z M126.78,111.48 c0.02-0.01,0-0.04-0.05-0.07C126.75,111.44,126.76,111.46,126.78,111.48z M128.23,103.23c-0.02,0.01-0.03,0.03-0.05,0.04 l0.03,0.07L128.23,103.23z M75.58,136.6c0.49,0.46,0.97,0.98,1.45,1.52c0,0,0,0,0,0c-0.28-0.41-0.55-0.82-0.81-1.24c0,0,0,0,0,0 c-0.03,0.02-0.06,0.04-0.08,0.07c-0.19-0.2-0.24-0.39-0.23-0.56c-0.26-0.42-0.5-0.84-0.74-1.27c0,0,0,0,0,0 c0,0.02-0.02,0.02-0.01,0.05c0.07,0.06,0.13,0.14,0.19,0.27c-0.12-0.12-0.17-0.2-0.19-0.27c-0.08-0.07-0.16-0.1-0.25-0.13 c0.24,0.54,0.51,1.08,0.99,1.5C75.76,136.53,75.59,136.44,75.58,136.6z M127.99,84.9c0,0.01-0.01,0.01-0.01,0.02 c0.01,0.05,0.03,0.11,0.04,0.16c0.11,0.01,0.21,0.02,0.32,0.04c-0.03-0.02-0.06-0.04-0.09-0.05 C128.16,85.01,128.07,84.95,127.99,84.9z M73.9,133.16c0.31,0.32,0.52,0.73,0.71,1.18c0.02-0.03,0.05-0.06,0.07-0.11 c-0.22-0.41-0.44-0.83-0.64-1.25C74,133.06,73.96,133.11,73.9,133.16z M72.87,132c-0.08,0.13-0.16,0.26-0.16,0.49l0.56,0.21 l-0.01-0.01l0.31,0.01C73.36,131.84,73.13,132.22,72.87,132z M129.55,85.94c0.03,0,0.05,0.01,0.08,0.01 c-0.02-0.01-0.04-0.03-0.06-0.04C129.57,85.93,129.56,85.93,129.55,85.94z M101.67,146.62c0,0-0.01,0-0.02,0l0,0.01 C101.65,146.63,101.66,146.62,101.67,146.62z M101.62,146.64C101.62,146.64,101.62,146.64,101.62,146.64 c-0.01,0-0.02,0-0.02,0.01c0,0,0,0,0,0C101.6,146.65,101.61,146.65,101.62,146.64z M102.91,146.02c-0.05,0-0.11,0.01-0.16,0.01 l-0.52-0.34l-0.04,0.09c-0.41-0.28-0.37-0.06-0.82-0.29c-0.1,0.04,0.04,0.17,0.14,0.28c0.5,0.05,0.75,0.24,1.02,0.43 C102.66,146.14,102.78,146.08,102.91,146.02z M128.2,109.58L128.2,109.58c0.06,0.07,0.12,0.13,0.16,0.19 C128.31,109.72,128.26,109.66,128.2,109.58z M130.23,141.84c1.32-1.08,2.58-2.2,3.66-3.42l0.1,0.14 c0.22-1.19,2.08-1.53,1.89-2.75c0.29-0.1,0.59-0.75,0.75-0.41c0.05-0.9,1.49-1.61,1.74-2.82c-0.01,0.01-0.01,0.01-0.01,0.02 c0-0.15,0-0.22,0.07-0.32c0,0.1-0.03,0.2-0.05,0.3c0.84-0.94,1.04-2.07,1.78-3.16c0.01,0.15-0.03,0.4,0.1,0.5 c0.28-0.21,0.17-0.65,0.2-0.97c-1.45-0.32-2.38-0.96-3.85-1.34l0.17-0.34l-1-0.11c0.29-0.22-0.2-0.6-0.71-0.67l0.32,0l-4.7-1.63 l-2.28-0.79c0.03,0.06,0.05,0.11,0.07,0.15h0c0.04,0.09,0.04,0.08,0,0h0v0l0,0l0,0.01l0,0.01l-0.07,0.2l-0.28,0.83 c-0.02-0.11-0.41-0.32-0.42-0.21l0.28,0.24l-0.15-0.04c0.05,0.1,0.26,0.29,0.46,0.28c-0.14,1.62-1.79,2.5-2.38,3.85 c-0.37,0.2-0.4,0.75-0.5,1.14c-0.21,0.1-0.41,0.21-0.61,0.31l0,0c-0.91,1.55-1.9,3.04-2.97,4.46c0,0,0,0,0,0l0.27,0.2l0.83,0.62 c2.2,1.69,4.54,3.16,6.58,5.01C129.74,141.37,129.98,141.6,130.23,141.84z M141.48,99.42c-0.01-0.02-0.02-0.04-0.03-0.06 c-0.02,0.02-0.05,0.04-0.07,0.05c0.04,0.02,0.08,0.04,0.13,0.06C141.49,99.45,141.49,99.43,141.48,99.42z M136.97,127.05 l-0.11-0.04c0,0.04,0,0.08,0.03,0.13c0.25,0.42,1.66,0.81,2.05,0.59l-0.28-0.1l-0.25-0.09c-0.14-0.01-0.27,0-0.5-0.01 c0-0.06,0.01-0.11,0.03-0.15L136.97,127.05z M80.21,94.12c-0.53,0.7-1.03,1.43-1.51,2.18c-0.05,0.08-0.1,0.16-0.15,0.24 c-0.46,0.73-0.9,1.47-1.31,2.24c-0.01,0.01-0.01,0.02-0.02,0.04c-0.36,0.68-0.69,1.38-1.02,2.09c0.13,0,0.26,0.01,0.39,0.01 C76.91,98.48,79.03,96.37,80.21,94.12z M88.44,110.23l-0.02,0.01c-0.03,0.01-0.08,0.06-0.12,0.1c0.08,0.17,0.21,0.42,0.34,0.68 c0.01-0.13,0.02-0.25,0.01-0.35C88.55,110.45,88.46,110.28,88.44,110.23L88.44,110.23z M88.57,110.27 c0.01,0.03,0.02,0.05,0.04,0.07l-0.02-0.04L88.57,110.27z M90.47,122.16c0.01-0.03,0.02-0.06,0.02-0.09 c-0.01-0.01-0.01-0.02-0.02-0.02C90.48,122.08,90.48,122.12,90.47,122.16z M76.57,101.54c-0.09-0.02-0.18-0.04-0.26-0.06 c0.07,0.03,0.16,0.06,0.26,0.08C76.57,101.55,76.57,101.55,76.57,101.54z M130.96,101.36c0.37,0.75,1.09,1.38,1.26,0.63 c0.04,0.25,0.1,0.44,0.16,0.59c0.11-0.04,0.22-0.07,0.33-0.09c0.85,0.27-0.61,0.43,0.63,0.54c0.23-0.27,1.37-0.43,0.4-0.67 c0.48-0.62,1.27,0.24,1.96-0.22c0.39,0.47-1.32,0.97,0.04,1.27c-0.2-0.44,1.69-0.5,0.99-1.18c0.52,0.15,0.58,0.49,0.19,0.74 c0.76,0.32,1.84-0.71,2.1,0.1l0.26-0.45c0.08,0.05,0.19,0.09,0.29,0.13c-1.71-3.5-4.01-6.63-6.67-9.37 c-0.39-0.43-0.8-0.82-1.2-1.22c0.42,1.2,0.76,2.41,1,3.54l-0.26-0.05c-0.02,0.98,0.52,0.39,0.5,1.08 c-0.29-0.25-0.35,0.81-0.78,0.15c0.02,1.37,0.8,1.62,1.02,2.49c0.34,0.08-0.31-0.67,0.12-0.57c0.14,0.14,0.02,1.91,0.54,2.06 c-0.14,0.37-0.53,0.14-0.76-0.01l0.35,0.79c-0.42,1.05-1.34-2.14-1.88-1l0.18,0.72C131.31,102.12,130.87,99.52,130.96,101.36z M140.87,128.58c-0.15-0.03-0.31-0.06-0.46-0.1l0.17,0.2C140.64,128.62,140.73,128.58,140.87,128.58z M131.63,87.42 c-0.08-0.07-0.17-0.13-0.25-0.19c-0.07-0.06-0.14-0.11-0.21-0.17l-0.15,0.03C131.31,87.58,131.47,87.52,131.63,87.42z M141.54,89.6c-0.07-0.07-0.15-0.13-0.22-0.2c0.04,0.1,0.1,0.19,0.13,0.29C141.47,89.63,141.5,89.6,141.54,89.6z M131.91,87.72 c0.05,0.01,0.1,0.02,0.15,0.03c-0.03-0.03-0.07-0.05-0.1-0.08C131.94,87.69,131.93,87.71,131.91,87.72z M114.15,106.97 c0.01-0.01,0.02-0.01,0.03-0.02c0-0.01-0.01-0.01-0.01-0.02C114.16,106.95,114.15,106.96,114.15,106.97z M116.97,105.78 c-0.11-0.01-0.22-0.02-0.33-0.03c-0.06,0.03-0.13,0.06-0.19,0.1c0.05,0.04,0.11,0.07,0.17,0.11 C116.73,105.89,116.85,105.84,116.97,105.78z M116.37,107.35c-0.02,0.06-0.05,0.11-0.08,0.16c0.03-0.01,0.06-0.02,0.11-0.02 C116.42,107.44,116.43,107.39,116.37,107.35z M116.24,107.59c0.02,0.01,0.04,0.01,0.07,0.02c0,0.02,0.01,0.04,0.02,0.06 c0.01-0.03,0.02-0.06,0.04-0.09c-0.02-0.01-0.06-0.02-0.1-0.03C116.26,107.56,116.25,107.57,116.24,107.59z M111.44,118.19 l-0.01,0l-0.03,0.01l0.01,0C111.41,118.2,111.43,118.2,111.44,118.19L111.44,118.19z M116.43,105.84 c0.06-0.03,0.12-0.06,0.17-0.09c-0.14-0.01-0.27-0.04-0.41-0.05C116.27,105.74,116.35,105.79,116.43,105.84z M111.92,118.36 l-0.04,0.01l-0.03,0.03C111.88,118.38,111.9,118.37,111.92,118.36L111.92,118.36L111.92,118.36z M115.9,107.48 c0.04,0.03,0.09,0.04,0.13,0.05c0.04-0.1,0.08-0.2,0.1-0.29c-0.03,0-0.06-0.01-0.09-0.01C116,107.32,115.95,107.4,115.9,107.48z M117.5,105.81c-0.13,0.27-0.25,0.61-0.22,0.77c-0.04,0.01-0.08,0.05-0.11,0.1c0.08,0.05,0.16,0.09,0.21,0.13 c0.09-0.17,0.16-0.36,0.2-0.59c-0.01,0-0.04-0.01-0.08-0.03l-0.01,0c0,0,0,0,0-0.01c-0.01,0-0.01,0-0.02-0.01 c-0.01-0.04-0.13-0.16,0.06-0.14c0.03-0.1,0.07-0.17,0.11-0.23C117.58,105.81,117.54,105.81,117.5,105.81z M111.04,119.93 c0.05,0.03,0.1,0.07,0.15,0.1c-0.02-0.06-0.02-0.12-0.01-0.23C111.13,119.84,111.08,119.89,111.04,119.93z M116.17,106.18 c0.03-0.01,0.05-0.03,0.08-0.04C116.18,106.13,116.14,106.14,116.17,106.18z M116.13,108c0,0.01-0.01,0.01-0.01,0.02 c0.1-0.05,0.12-0.15,0.04-0.27C116.12,107.83,116.1,107.91,116.13,108z M114.27,106.93 C114.27,106.93,114.27,106.93,114.27,106.93c-0.03,0.03,0.04,0.09,0.1,0.14c0.01,0,0.02-0.01,0.03-0.01 c0.01-0.03,0.02-0.05,0.03-0.08C114.38,106.96,114.32,106.95,114.27,106.93z M115.14,107.15c-0.03,0-0.07-0.01-0.11-0.02 c-0.04,0.02-0.08,0.06-0.11,0.13c0.05,0.01,0.11,0.03,0.18,0.05C115.11,107.28,115.12,107.22,115.14,107.15z M114.39,107.08 c0.02,0.02,0.04,0.03,0.05,0.04c0.05,0.02,0.08,0.03,0.12,0.04l0.02-0.02c-0.02,0.03-0.02-0.06-0.03-0.13 c-0.01,0-0.02-0.01-0.03-0.01c-0.04,0.02-0.07,0.04-0.11,0.06C114.4,107.07,114.39,107.07,114.39,107.08z M100.95,154.18 c0.08-0.01,0.19,0,0.31,0c-0.01,0-0.03-0.01-0.04-0.01c-0.1-0.02-0.2-0.04-0.31-0.06C100.93,154.13,100.95,154.15,100.95,154.18z M177.18,172.46c-2.88-1.57,1.02,0.44-9.94-4.76c-4.78-2.27-8.03-5.26-8.05-9.86c4.72,0.15,2.78,6.97,7.87,6.75 c1.13-3.48-5.99-4.37-2.25-6.75c0.6,4.27,4.79,4.96,9,5.62c-0.45-5.92-6.9-5.84-11.25-7.87c-0.34-2.21,1.52-2.23,2.25-3.37 c-7.47-2.17-3.59-12.69-6.75-16.87c2.91-5.4,10.1,1.99,13.5-1.12c-2.48-2.39-9.16-0.59-9-5.62c1.77-0.85,1.68-3.57,4.5-3.37 c0.01,1.13,1.97,1.41,2.25,0c-8.6-0.83-4.12-7.83-10.12-11.25c4.96-0.5-2.65-1.58,2.25-3.38c-2.5-1.86-6.1,0.24-6.75-1.12 c5.96-5.28,1.91-13.13,5.62-21.37c-5.55-0.43-2.97,8.53-4.5,9c-1.52,0.35-2.15,1.6-4.5,1.12c0.33-0.69,2.8-4.33,0-4.5 c-1.61,0.94-3.04,2.06-4.86,2.8c0.63,1.5,1.01,3.09,1.6,4.43c1.85,3.71,2.61,8.04,2.98,11.98l-0.17-0.03 c0.7,1.3-0.57,3.11,0.4,4.17c-0.14,0.31-0.16,1.19-0.45,0.95c0.29,1-0.41,2.61-0.36,4.08c0,0,0-0.01,0-0.01 c0.04,0.17,0.06,0.26,0.02,0.39c-0.02-0.12-0.02-0.25-0.02-0.38c-0.67,1.43-0.3,2.89-1.11,4.36c-0.02-0.18,0.01-0.47-0.13-0.56 c-0.47,0.51,0.25,1.6-0.6,1.71c-0.09,0.34,0.31,0.36,0.35,0.14c-1.23,3.3-2.37,6.9-4.13,10.2c-1.86,1.96-1.2-0.59-1.86,1.46 c-0.22,0.05,0.18,0.27,0.03,0.2c-0.26,0.81-1.4,0.51-1.43,1.17c0.53,0.12-0.02,0.45,0.2,0.65c-1.27,1.04-1.76,1.02-2.33,2.2 l-0.12-0.24c-0.53,1.52-1.95,2.52-2.37,3.94c-6.12,5.57-13.53,9.48-21.68,10.77c-4.45,0.57-8.98,0.55-13.38-0.22 c0.52,0.57,0.9,1.28,1.06,2.21c-1.05,2.7-4.52,2.98-3.37,7.87c7.49,1.1,2.07-5.6,4.5-7.87c9.09,0.28,14.21,4.54,19.12,9 c-0.91,2.09-1.45,4.54-3.37,5.62c8.98,1.51-3.68,9.47,1.12,13.5c2.6-1.53,5.02-3.23,9-3.38c2.86,0.98-3.34,7.89,0,5.62 c1.2-1.05,0.35-4.15,3.37-3.37c10.62,7.37,9.55,19.5,9.34,33.02c0,0-3.72,9.08,1.86,11.17c5.58,2.09,6.52-13.5,4.42-15.59 c-2.09-2.09,0.93-13.5,0.93-18.38c0-4.89,4.82-14.72,4.82-14.72c2.28,1.01,1.54,7.47,4.5,4.5c0.62-2.47-2.17-8.87,1.12-13.5 c-1.64-0.98-4.36-0.89-3.37-4.5c2.59,2.23,1.25-0.28,3.37-1.12c8.17-0.28,13.23,8.49,19.12,6.75 C179,174.13,173.97,173.05,177.18,172.46z M114.46,106.92c-0.01,0.02-0.02,0.04-0.03,0.06c0.03,0.01,0.05,0.01,0.08,0.02 c0.01,0,0.02-0.01,0.03-0.01C114.53,106.93,114.51,106.88,114.46,106.92z M117.58,106.15l-0.03,0.01 c0.01,0.01,0.01,0.02,0.02,0.03C117.57,106.17,117.58,106.16,117.58,106.15z M115.67,106.43c0.1-0.05,0.2-0.1,0.3-0.15 c-0.18-0.05-0.33-0.09-0.35-0.01C115.63,106.32,115.63,106.37,115.67,106.43z M115.66,101.62L115.66,101.62 c0.02,0.06,0.04,0.1,0.06,0.14c0.02,0.02,0.03,0.04,0.05,0.06C115.74,101.78,115.71,101.72,115.66,101.62z M113.99,107.26 c0.06-0.03,0.13-0.06,0.21-0.1c0-0.07,0-0.13-0.01-0.18c-0.02,0.01-0.03,0.02-0.05,0.03 C114.08,107.09,114.03,107.18,113.99,107.26z M113.26,120.39c0.03-0.01,0.06-0.02,0.08-0.03 C113.33,120.33,113.3,120.35,113.26,120.39z M112.43,110.92l-0.01,0.02c0.04,0.01,0.07,0.03,0.11,0.04 c0.31,0.06,0.28-0.15-0.02-0.3l-0.01,0.03l-0.01,0.03c0.02,0.03,0.07,0.06,0.12,0.11c-0.06-0.02-0.1-0.03-0.14-0.05 L112.43,110.92z M112.83,109.77l-0.02,0.06c0.02-0.01,0.04-0.02,0.09-0.03C112.88,109.79,112.85,109.78,112.83,109.77z M173.81,89.23c2.86,2.04,10.22,1.06,10.12-3.37C181.25,81.49,173.67,84.21,173.81,89.23z M88.05,152.22 c0.13-0.05,0.26-0.02,0.19-0.17c-0.39,0.46-1.28-0.72-1.72-0.39c-2.49-1.72-4.82-3.31-7.03-5.53c0.39,0.31,0.88,0.16,0.44-0.23 l-0.68-0.18l0.04-0.18c-0.34-0.22-0.85-0.35-0.68,0.07c-0.64-0.58-1.23-1.2-1.8-1.83c1.63,2.4,3.97,4.09,5.9,6.18 c-3.86,4.03-4.35,17.38-4.5,21.37c1.33-5.26,3.15-5.68,9-4.5c0.29-6.1,6.24-6.54,8.62-10.54c-1.44-0.51-2.86-1.12-4.25-1.83 C90.13,153.03,90.04,152.95,88.05,152.22z M120.94,208.45c-0.02,1.88-3.66,8.21,1.12,7.87 C123.69,216.06,124.68,207.07,120.94,208.45z M100.36,98.95c0-0.01,0-0.01,0-0.02c-0.03-0.01-0.06-0.02-0.11-0.06 C100.31,98.97,100.34,98.98,100.36,98.95z M102.31,95.28c-0.35-0.27-0.21-0.52-0.48-0.48c0.07,0.16,0.3,0.45,0.51,0.65 C102.32,95.39,102.32,95.34,102.31,95.28z M116.99,107.04c0.07,0.02,0.15,0.05,0.21,0.07l0.01,0.01 c0.04-0.07,0.07-0.14,0.11-0.21c0,0,0,0,0,0c-0.06-0.05-0.14-0.09-0.22-0.11C117.06,106.87,117.02,106.95,116.99,107.04z M100.38,99.03c0.12-0.02,0.23-0.04,0.32-0.06l-0.1-0.08c-0.07-0.03-0.1-0.02-0.12,0c0.01,0.02,0,0.03-0.02,0.02 c-0.02,0.03-0.05,0.05-0.1,0.04c0,0,0,0.01-0.01,0.01C100.36,98.98,100.37,99,100.38,99.03z M100.34,98.57 C100.34,98.57,100.34,98.57,100.34,98.57L100.34,98.57L100.34,98.57z M100.37,98.83c-0.01-0.01-0.01-0.01-0.02-0.02 c-0.02,0.03-0.01,0.07,0,0.12c0,0,0.01,0.01,0.01,0.01C100.37,98.92,100.37,98.88,100.37,98.83z M100.33,98.61l0.02,0.04l0-0.02 l-0.01-0.05v0v0c0,0,0,0-0.01,0L100.33,98.61z M125.84,102.33c0.01,0.01,0.03,0.02,0.04,0.03c0.03-0.02,0.05-0.04,0.09-0.06 C125.92,102.32,125.88,102.32,125.84,102.33z M102.95,96.23c0.01,0.04,0.01,0.07,0.02,0.11c0.05,0.02,0.09,0.03,0.14,0.05 c-0.02-0.04-0.06-0.09-0.14-0.15C102.95,96.23,102.95,96.23,102.95,96.23z M103.24,96.43c-0.01-0.08-0.03-0.16-0.04-0.25 c-0.12-0.15-0.22-0.31-0.34-0.47c0.02,0.15,0.05,0.3,0.07,0.46c0.07,0.08,0.14,0.16,0.19,0.23 C103.17,96.4,103.2,96.42,103.24,96.43z M104.54,94.72c-0.04-0.02-0.08-0.04-0.13-0.08c0.03,0.06,0.04,0.1,0.06,0.15 C104.5,94.77,104.52,94.75,104.54,94.72z M126.55,102.66c0.01,0.03,0.01,0.07,0.01,0.11c0.06-0.01,0.12-0.03,0.19-0.03 C126.42,102.71,127.03,102.63,126.55,102.66z M127.09,104.28c-0.03,0.02-0.05,0.04-0.07,0.07 C127.17,104.32,127.23,104.3,127.09,104.28z M117.09,107.33c0.02-0.04,0.04-0.07,0.06-0.11l-0.09-0.04 C116.96,107.23,117.01,107.28,117.09,107.33z M126.63,107.78l0.08,0.01l-0.05,0.03c0.07,0.08,0.15,0.18,0.25,0.29 c0.1,0.03,0.2,0.04,0.29-0.01c0.74-0.1-0.53-0.24-0.17-0.41l-0.46,0.03C126.59,107.73,126.61,107.76,126.63,107.78z M122.15,102.23c0.01,0.02,0.03,0,0.06-0.04C122.18,102.21,122.16,102.22,122.15,102.23z"/>
    </g>
  </g>
</svg>